<svg width="39" height="33" viewBox="0 0 39 33" fill="none" xmlns="http://www.w3.org/2000/svg">
<path fill-rule="evenodd" clip-rule="evenodd" d="M0.75 16.5C0.75 15.8784 0.996931 15.2823 1.43647 14.8428C1.87601 14.4032 2.47215 14.1563 3.09375 14.1563H30.2484L20.1844 4.09691C19.7443 3.65681 19.497 3.05992 19.497 2.43753C19.497 1.81515 19.7443 1.21825 20.1844 0.778157C20.6245 0.338063 21.2214 0.0908203 21.8438 0.0908203C22.4661 0.0908203 23.063 0.338063 23.5031 0.778157L37.5656 14.8407C37.7839 15.0584 37.9571 15.317 38.0752 15.6017C38.1934 15.8865 38.2542 16.1917 38.2542 16.5C38.2542 16.8083 38.1934 17.1136 38.0752 17.3983C37.9571 17.6831 37.7839 17.9417 37.5656 18.1594L23.5031 32.2219C23.063 32.662 22.4661 32.9092 21.8438 32.9092C21.2214 32.9092 20.6245 32.662 20.1844 32.2219C19.7443 31.7818 19.497 31.1849 19.497 30.5625C19.497 29.9401 19.7443 29.3433 20.1844 28.9032L30.2484 18.8438H3.09375C2.47215 18.8438 1.87601 18.5969 1.43647 18.1573C0.996931 17.7178 0.75 17.1216 0.75 16.5Z" fill="black"/>
</svg>
