<svg width="39" height="33" viewBox="0 0 39 33" fill="none" xmlns="http://www.w3.org/2000/svg">
<path fill-rule="evenodd" clip-rule="evenodd" d="M38.25 16.5C38.25 17.1216 38.0031 17.7177 37.5635 18.1572C37.124 18.5968 36.5279 18.8437 35.9062 18.8437H8.75156L18.8156 28.9031C19.2557 29.3432 19.503 29.9401 19.503 30.5625C19.503 31.1849 19.2557 31.7817 18.8156 32.2218C18.3755 32.6619 17.7786 32.9092 17.1562 32.9092C16.5339 32.9092 15.937 32.6619 15.4969 32.2218L1.43438 18.1593C1.21611 17.9416 1.04294 17.683 0.924786 17.3983C0.806629 17.1135 0.745811 16.8083 0.745811 16.5C0.745811 16.1917 0.806629 15.8864 0.924786 15.6017C1.04294 15.3169 1.21611 15.0583 1.43438 14.8406L15.4969 0.778091C15.937 0.337997 16.5339 0.0907593 17.1562 0.0907593C17.7786 0.0907593 18.3755 0.337997 18.8156 0.778091C19.2557 1.21819 19.503 1.81508 19.503 2.43747C19.503 3.05985 19.2557 3.65675 18.8156 4.09684L8.75156 14.1562H35.9062C36.5279 14.1562 37.124 14.4031 37.5635 14.8427C38.0031 15.2822 38.25 15.8784 38.25 16.5Z" fill="black"/>
</svg>
