<svg width="45" height="45" viewBox="0 0 45 45" fill="none" xmlns="http://www.w3.org/2000/svg">
<path d="M11.25 4.21875H8.4375C6.94566 4.21875 5.51492 4.81138 4.46002 5.86627C3.40513 6.92117 2.8125 8.35191 2.8125 9.84375V39.375C2.8125 40.8668 3.40513 42.2976 4.46002 43.3525C5.51492 44.4074 6.94566 45 8.4375 45H36.5625C38.0543 45 39.4851 44.4074 40.54 43.3525C41.5949 42.2976 42.1875 40.8668 42.1875 39.375V9.84375C42.1875 8.35191 41.5949 6.92117 40.54 5.86627C39.4851 4.81138 38.0543 4.21875 36.5625 4.21875H33.75V7.03125H36.5625C37.3084 7.03125 38.0238 7.32757 38.5512 7.85501C39.0787 8.38246 39.375 9.09783 39.375 9.84375V39.375C39.375 40.1209 39.0787 40.8363 38.5512 41.3637C38.0238 41.8912 37.3084 42.1875 36.5625 42.1875H8.4375C7.69158 42.1875 6.97621 41.8912 6.44876 41.3637C5.92132 40.8363 5.625 40.1209 5.625 39.375V9.84375C5.625 9.09783 5.92132 8.38246 6.44876 7.85501C6.97621 7.32757 7.69158 7.03125 8.4375 7.03125H11.25V4.21875Z" fill="black"/>
<path d="M26.7188 2.8125C27.0917 2.8125 27.4494 2.96066 27.7131 3.22438C27.9768 3.4881 28.125 3.84579 28.125 4.21875V7.03125C28.125 7.40421 27.9768 7.7619 27.7131 8.02562C27.4494 8.28934 27.0917 8.4375 26.7188 8.4375H18.2812C17.9083 8.4375 17.5506 8.28934 17.2869 8.02562C17.0232 7.7619 16.875 7.40421 16.875 7.03125V4.21875C16.875 3.84579 17.0232 3.4881 17.2869 3.22438C17.5506 2.96066 17.9083 2.8125 18.2812 2.8125H26.7188ZM18.2812 0C17.1624 0 16.0893 0.444474 15.2981 1.23564C14.507 2.02681 14.0625 3.09987 14.0625 4.21875V7.03125C14.0625 8.15013 14.507 9.22319 15.2981 10.0144C16.0893 10.8055 17.1624 11.25 18.2812 11.25H26.7188C27.8376 11.25 28.9107 10.8055 29.7019 10.0144C30.493 9.22319 30.9375 8.15013 30.9375 7.03125V4.21875C30.9375 3.09987 30.493 2.02681 29.7019 1.23564C28.9107 0.444474 27.8376 0 26.7188 0L18.2812 0Z" fill="black"/>
</svg>
