<svg width="87" height="87" viewBox="0 0 87 87" fill="none" xmlns="http://www.w3.org/2000/svg">
<g clip-path="url(#clip0_48_80)">
<path d="M87 0H0V87H87V0Z" fill="white"/>
<path d="M33.412 6C34.133 6 36.09 8.369 36.09 9.09H33V6.412C33 6.206 33.206 6 33.412 6Z" fill="black"/>
<path d="M39 8.678C39 7.957 41.369 6 42.09 6V9.09H39.412C39.206 9.09 39 8.884 39 8.678Z" fill="black"/>
<path d="M45.09 6H42V9.09H45.09V6Z" fill="black"/>
<path d="M48.09 6.412C48.09 7.133 45.721 9.09 45 9.09V6H47.678C47.884 6 48.09 6.206 48.09 6.412Z" fill="black"/>
<path d="M54.412 6C55.133 6 57.09 8.369 57.09 9.09H54V6.412C54 6.206 54.206 6 54.412 6Z" fill="black"/>
<path d="M36.09 9H33V12.09H36.09V9Z" fill="black"/>
<path d="M36 12.09V9H38.06C38.6265 9 39.09 9.4635 39.09 10.03V12.09H36Z" fill="black"/>
<path d="M44.678 12.09C43.957 12.09 42 9.721 42 9H45.09V11.678C45.09 11.884 44.884 12.09 44.678 12.09Z" fill="black"/>
<path d="M48 11.678C48 10.957 50.369 9 51.09 9V12.09H48.412C48.206 12.09 48 11.884 48 11.678Z" fill="black"/>
<path d="M54.09 9H51V12.09H54.09V9Z" fill="black"/>
<path d="M57.09 9H54V12.09H57.09V9Z" fill="black"/>
<path d="M33.09 15.09H30V13.03C30 12.4635 30.4635 12 31.03 12H33.09V15.09Z" fill="black"/>
<path d="M36.09 12H33V15.09H36.09V12Z" fill="black"/>
<path d="M39.09 12H36V15.09H39.09V12Z" fill="black"/>
<path d="M39 15.09V12H41.06C41.6265 12 42.09 12.4635 42.09 13.03V15.09H39Z" fill="black"/>
<path d="M54.09 12H51V15.09H54.09V12Z" fill="black"/>
<path d="M57.09 12H54V15.09H57.09V12Z" fill="black"/>
<path d="M33.09 15H30V18.09H33.09V15Z" fill="black"/>
<path d="M36.09 15H33V18.09H36.09V15Z" fill="black"/>
<path d="M39.09 15H36V18.09H39.09V15Z" fill="black"/>
<path d="M42.09 15H39V18.09H42.09V15Z" fill="black"/>
<path d="M45.09 15H42V18.09H45.09V15Z" fill="black"/>
<path d="M48.09 15H45V18.09H48.09V15Z" fill="black"/>
<path d="M51.09 15H48V18.09H51.09V15Z" fill="black"/>
<path d="M54.09 15H51V18.09H54.09V15Z" fill="black"/>
<path d="M57.09 15H54V18.09H57.09V15Z" fill="black"/>
<path d="M33.09 18H30V21.09H33.09V18Z" fill="black"/>
<path d="M41.678 21.09C40.957 21.09 39 18.721 39 18H42.09V20.678C42.09 20.884 41.884 21.09 41.678 21.09Z" fill="black"/>
<path d="M57.09 18H54V21.09H57.09V18Z" fill="black"/>
<path d="M33.09 21H30V24.09H33.09V21Z" fill="black"/>
<path d="M36.09 21.412C36.09 22.133 33.721 24.09 33 24.09V21H35.678C35.884 21 36.09 21.206 36.09 21.412Z" fill="black"/>
<path d="M51.09 24.09H48V22.03C48 21.4635 48.4635 21 49.03 21H51.09V24.09Z" fill="black"/>
<path d="M54.09 21H51V24.09H54.09V21Z" fill="black"/>
<path d="M57.09 21H54V24.09H57.09V21Z" fill="black"/>
<path d="M33.09 24H30V27.09H33.09V24Z" fill="black"/>
<path d="M38.781 25.4421C38.3175 24.5666 37.339 23.9486 36.618 24.0001C35.9485 24.0516 35.794 24.8241 36.2575 25.6481C36.7725 26.5236 37.6995 27.1416 38.4205 27.0901C39.1415 27.0386 39.296 26.2661 38.781 25.4421Z" fill="black"/>
<path d="M42.412 24C43.133 24 45.09 26.369 45.09 27.09H42V24.412C42 24.206 42.206 24 42.412 24Z" fill="black"/>
<path d="M51.09 24H48V27.09H51.09V24Z" fill="black"/>
<path d="M57.09 24H54V27.09H57.09V24Z" fill="black"/>
<path d="M33.09 27V30.09H31.03C30.4635 30.09 30 29.6265 30 29.06V27H33.09Z" fill="black"/>
<path d="M33 30.09V27H35.06C35.6265 27 36.09 27.4635 36.09 28.03V30.09H33Z" fill="black"/>
<path d="M44.678 30.09C43.957 30.09 42 27.721 42 27H45.09V29.678C45.09 29.884 44.884 30.09 44.678 30.09Z" fill="black"/>
<path d="M51.09 27H48V30.09H51.09V27Z" fill="black"/>
<path d="M56.678 30.09C55.957 30.09 54 27.721 54 27H57.09V29.678C57.09 29.884 56.884 30.09 56.678 30.09Z" fill="black"/>
<path d="M8.78101 31.4421C8.31751 30.5666 7.33901 29.9486 6.61801 30.0001C5.94851 30.0516 5.79401 30.8241 6.25751 31.6481C6.77251 32.5236 7.69951 33.1416 8.42051 33.0901C9.14151 33.0386 9.29601 32.2661 8.78101 31.4421Z" fill="black"/>
<path d="M12 32.678C12 31.957 14.369 30 15.09 30V33.09H12.412C12.206 33.09 12 32.884 12 32.678Z" fill="black"/>
<path d="M18.09 30H15V33.09H18.09V30Z" fill="black"/>
<path d="M21.09 30H18V33.09H21.09V30Z" fill="black"/>
<path d="M24.09 30H21V33.09H24.09V30Z" fill="black"/>
<path d="M27.09 30.412C27.09 31.133 24.721 33.09 24 33.09V30H26.678C26.884 30 27.09 30.206 27.09 30.412Z" fill="black"/>
<path d="M36.09 30H33V33.09H36.09V30Z" fill="black"/>
<path d="M48.09 33.09H45V31.03C45 30.4635 45.4635 30 46.03 30H48.09V33.09Z" fill="black"/>
<path d="M51.09 30H48V33.09H51.09V30Z" fill="black"/>
<path d="M54.09 30.412C54.09 31.133 51.721 33.09 51 33.09V30H53.678C53.884 30 54.09 30.206 54.09 30.412Z" fill="black"/>
<path d="M60 32.678C60 31.957 62.369 30 63.09 30V33.09H60.412C60.206 33.09 60 32.884 60 32.678Z" fill="black"/>
<path d="M66.09 30H63V33.09H66.09V30Z" fill="black"/>
<path d="M69.09 30H66V33.09H69.09V30Z" fill="black"/>
<path d="M72.09 30H69V33.09H72.09V30Z" fill="black"/>
<path d="M75.09 30.412C75.09 31.133 72.721 33.09 72 33.09V30H74.678C74.884 30 75.09 30.206 75.09 30.412Z" fill="black"/>
<path d="M9.412 33C10.133 33 12.09 35.369 12.09 36.09H9V33.412C9 33.206 9.206 33 9.412 33Z" fill="black"/>
<path d="M21.09 33H18V36.09H21.09V33Z" fill="black"/>
<path d="M21 33H24.09V35.06C24.09 35.6265 23.6265 36.09 23.06 36.09H21V33Z" fill="black"/>
<path d="M27.412 33C28.133 33 30.09 35.369 30.09 36.09H27V33.412C27 33.206 27.206 33 27.412 33Z" fill="black"/>
<path d="M36.09 33H33V36.09H36.09V33Z" fill="black"/>
<path d="M36 36.09V33H38.06C38.6265 33 39.09 33.4635 39.09 34.03V36.09H36Z" fill="black"/>
<path d="M48.09 33V36.09H46.03C45.4635 36.09 45 35.6265 45 35.06V33H48.09Z" fill="black"/>
<path d="M48 33H51.09V35.06C51.09 35.6265 50.6265 36.09 50.06 36.09H48V33Z" fill="black"/>
<path d="M54.412 33C55.133 33 57.09 35.369 57.09 36.09H54V33.412C54 33.206 54.206 33 54.412 33Z" fill="black"/>
<path d="M75.412 33C76.133 33 78.09 35.369 78.09 36.09H75V33.412C75 33.206 75.206 33 75.412 33Z" fill="black"/>
<path d="M11.678 39.09C10.957 39.09 9 36.721 9 36H12.09V38.678C12.09 38.884 11.884 39.09 11.678 39.09Z" fill="black"/>
<path d="M15 38.678C15 37.957 17.369 36 18.09 36V39.09H15.412C15.206 39.09 15 38.884 15 38.678Z" fill="black"/>
<path d="M21.09 36H18V39.09H21.09V36Z" fill="black"/>
<path d="M24 38.678C24 37.957 26.369 36 27.09 36V39.09H24.412C24.206 39.09 24 38.884 24 38.678Z" fill="black"/>
<path d="M30.09 36H27V39.09H30.09V36Z" fill="black"/>
<path d="M33.09 36H30V39.09H33.09V36Z" fill="black"/>
<path d="M36.09 36H33V39.09H36.09V36Z" fill="black"/>
<path d="M39.09 36H36V39.09H39.09V36Z" fill="black"/>
<path d="M44.781 37.4421C44.3175 36.5666 43.339 35.9486 42.618 36.0001C41.9485 36.0516 41.794 36.8241 42.2575 37.6481C42.7725 38.5236 43.6995 39.1416 44.4205 39.0901C45.1415 39.0386 45.296 38.2661 44.781 37.4421Z" fill="black"/>
<path d="M54.09 39.09H51V37.03C51 36.4635 51.4635 36 52.03 36H54.09V39.09Z" fill="black"/>
<path d="M57.09 36H54V39.09H57.09V36Z" fill="black"/>
<path d="M60.09 36.412C60.09 37.133 57.721 39.09 57 39.09V36H59.678C59.884 36 60.09 36.206 60.09 36.412Z" fill="black"/>
<path d="M71.781 37.4421C71.3175 36.5666 70.339 35.9486 69.618 36.0001C68.9485 36.0516 68.794 36.8241 69.2575 37.6481C69.7725 38.5236 70.6995 39.1416 71.4205 39.0901C72.1415 39.0386 72.296 38.2661 71.781 37.4421Z" fill="black"/>
<path d="M78.09 36V39.09H76.03C75.4635 39.09 75 38.6265 75 38.06V36H78.09Z" fill="black"/>
<path d="M78 39.09V36H80.06C80.6265 36 81.09 36.4635 81.09 37.03V39.09H78Z" fill="black"/>
<path d="M21.09 39V42.09H19.03C18.4635 42.09 18 41.6265 18 41.06V39H21.09Z" fill="black"/>
<path d="M24.09 39.412C24.09 40.133 21.721 42.09 21 42.09V39H23.678C23.884 39 24.09 39.206 24.09 39.412Z" fill="black"/>
<path d="M29.678 42.09C28.957 42.09 27 39.721 27 39H30.09V41.678C30.09 41.884 29.884 42.09 29.678 42.09Z" fill="black"/>
<path d="M36.09 39H33V42.09H36.09V39Z" fill="black"/>
<path d="M39.09 39H36V42.09H39.09V39Z" fill="black"/>
<path d="M39 42.09V39H41.06C41.6265 39 42.09 39.4635 42.09 40.03V42.09H39Z" fill="black"/>
<path d="M54.09 39H51V42.09H54.09V39Z" fill="black"/>
<path d="M54 39H57.09V41.06C57.09 41.6265 56.6265 42.09 56.06 42.09H54V39Z" fill="black"/>
<path d="M63.412 39C64.133 39 66.09 41.369 66.09 42.09H63V39.412C63 39.206 63.206 39 63.412 39Z" fill="black"/>
<path d="M81.09 39H78V42.09H81.09V39Z" fill="black"/>
<path d="M9.09 45.09H6V43.03C6 42.4635 6.4635 42 7.03 42H9.09V45.09Z" fill="black"/>
<path d="M9 45.09V42H11.06C11.6265 42 12.09 42.4635 12.09 43.03V45.09H9Z" fill="black"/>
<path d="M26.781 43.4421C26.3175 42.5666 25.339 41.9486 24.618 42.0001C23.9485 42.0516 23.794 42.8241 24.2575 43.6481C24.7725 44.5236 25.6995 45.1416 26.4205 45.0901C27.1415 45.0386 27.296 44.2661 26.781 43.4421Z" fill="black"/>
<path d="M35.678 45.09C34.957 45.09 33 42.721 33 42H36.09V44.678C36.09 44.884 35.884 45.09 35.678 45.09Z" fill="black"/>
<path d="M42.09 42V45.09H40.03C39.4635 45.09 39 44.6265 39 44.06V42H42.09Z" fill="black"/>
<path d="M45.09 42H42V45.09H45.09V42Z" fill="black"/>
<path d="M48.09 42H45V45.09H48.09V42Z" fill="black"/>
<path d="M51.09 42H48V45.09H51.09V42Z" fill="black"/>
<path d="M51 42H54.09V44.06C54.09 44.6265 53.6265 45.09 53.06 45.09H51V42Z" fill="black"/>
<path d="M57 44.678C57 43.957 59.369 42 60.09 42V45.09H57.412C57.206 45.09 57 44.884 57 44.678Z" fill="black"/>
<path d="M63.09 42H60V45.09H63.09V42Z" fill="black"/>
<path d="M66.09 42H63V45.09H66.09V42Z" fill="black"/>
<path d="M69.09 42.412C69.09 43.133 66.721 45.09 66 45.09V42H68.678C68.884 42 69.09 42.206 69.09 42.412Z" fill="black"/>
<path d="M72 44.678C72 43.957 74.369 42 75.09 42V45.09H72.412C72.206 45.09 72 44.884 72 44.678Z" fill="black"/>
<path d="M78.09 42H75V45.09H78.09V42Z" fill="black"/>
<path d="M78 42H81.09V44.06C81.09 44.6265 80.6265 45.09 80.06 45.09H78V42Z" fill="black"/>
<path d="M9.09 45H6V48.09H9.09V45Z" fill="black"/>
<path d="M12.09 45H9V48.09H12.09V45Z" fill="black"/>
<path d="M15.09 45H12V48.09H15.09V45Z" fill="black"/>
<path d="M18.09 45H15V48.09H18.09V45Z" fill="black"/>
<path d="M21.09 45H18V48.09H21.09V45Z" fill="black"/>
<path d="M24.09 45.412C24.09 46.133 21.721 48.09 21 48.09V45H23.678C23.884 45 24.09 45.206 24.09 45.412Z" fill="black"/>
<path d="M38.781 46.4421C38.3175 45.5666 37.339 44.9486 36.618 45.0001C35.9485 45.0516 35.794 45.8241 36.2575 46.6481C36.7725 47.5236 37.6995 48.1416 38.4205 48.0901C39.1415 48.0386 39.296 47.2661 38.781 46.4421Z" fill="black"/>
<path d="M50.678 48.09C49.957 48.09 48 45.721 48 45H51.09V47.678C51.09 47.884 50.884 48.09 50.678 48.09Z" fill="black"/>
<path d="M56.781 46.4421C56.3175 45.5666 55.339 44.9486 54.618 45.0001C53.9485 45.0516 53.794 45.8241 54.2575 46.6481C54.7725 47.5236 55.6995 48.1416 56.4205 48.0901C57.1415 48.0386 57.296 47.2661 56.781 46.4421Z" fill="black"/>
<path d="M66.09 45H63V48.09H66.09V45Z" fill="black"/>
<path d="M69.412 45C70.133 45 72.09 47.369 72.09 48.09H69V45.412C69 45.206 69.206 45 69.412 45Z" fill="black"/>
<path d="M78.09 45H75V48.09H78.09V45Z" fill="black"/>
<path d="M9.09 48H6V51.09H9.09V48Z" fill="black"/>
<path d="M26.781 49.4421C26.3175 48.5666 25.339 47.9486 24.618 48.0001C23.9485 48.0516 23.794 48.8241 24.2575 49.6481C24.7725 50.5236 25.6995 51.1416 26.4205 51.0901C27.1415 51.0386 27.296 50.2661 26.781 49.4421Z" fill="black"/>
<path d="M32.781 49.4421C32.3175 48.5666 31.339 47.9486 30.618 48.0001C29.9485 48.0516 29.794 48.8241 30.2575 49.6481C30.7725 50.5236 31.6995 51.1416 32.4205 51.0901C33.1415 51.0386 33.296 50.2661 32.781 49.4421Z" fill="black"/>
<path d="M42.09 51.09H39V49.03C39 48.4635 39.4635 48 40.03 48H42.09V51.09Z" fill="black"/>
<path d="M45.09 48.412C45.09 49.133 42.721 51.09 42 51.09V48H44.678C44.884 48 45.09 48.206 45.09 48.412Z" fill="black"/>
<path d="M53.781 49.4421C53.3175 48.5666 52.339 47.9486 51.618 48.0001C50.9485 48.0516 50.794 48.8241 51.2575 49.6481C51.7725 50.5236 52.6995 51.1416 53.4205 51.0901C54.1415 51.0386 54.296 50.2661 53.781 49.4421Z" fill="black"/>
<path d="M57.412 48C58.133 48 60.09 50.369 60.09 51.09H57V48.412C57 48.206 57.206 48 57.412 48Z" fill="black"/>
<path d="M66.09 48H63V51.09H66.09V48Z" fill="black"/>
<path d="M69.09 48H66V51.09H69.09V48Z" fill="black"/>
<path d="M69 48H72.09V50.06C72.09 50.6265 71.6265 51.09 71.06 51.09H69V48Z" fill="black"/>
<path d="M78.09 48V51.09H76.03C75.4635 51.09 75 50.6265 75 50.06V48H78.09Z" fill="black"/>
<path d="M78 51.09V48H80.06C80.6265 48 81.09 48.4635 81.09 49.03V51.09H78Z" fill="black"/>
<path d="M9.09 51H6V54.09H9.09V51Z" fill="black"/>
<path d="M12.412 51C13.133 51 15.09 53.369 15.09 54.09H12V51.412C12 51.206 12.206 51 12.412 51Z" fill="black"/>
<path d="M21.09 54.09H18V52.03C18 51.4635 18.4635 51 19.03 51H21.09V54.09Z" fill="black"/>
<path d="M24.09 51.412C24.09 52.133 21.721 54.09 21 54.09V51H23.678C23.884 51 24.09 51.206 24.09 51.412Z" fill="black"/>
<path d="M29.781 52.4421C29.3175 51.5666 28.339 50.9486 27.618 51.0001C26.9485 51.0516 26.794 51.8241 27.2575 52.6481C27.7725 53.5236 28.6995 54.1416 29.4205 54.0901C30.1415 54.0386 30.296 53.2661 29.781 52.4421Z" fill="black"/>
<path d="M35.781 52.4421C35.3175 51.5666 34.339 50.9486 33.618 51.0001C32.9485 51.0516 32.794 51.8241 33.2575 52.6481C33.7725 53.5236 34.6995 54.1416 35.4205 54.0901C36.1415 54.0386 36.296 53.2661 35.781 52.4421Z" fill="black"/>
<path d="M42.09 51H39V54.09H42.09V51Z" fill="black"/>
<path d="M60.09 51H57V54.09H60.09V51Z" fill="black"/>
<path d="M63.09 51H60V54.09H63.09V51Z" fill="black"/>
<path d="M66.09 51H63V54.09H66.09V51Z" fill="black"/>
<path d="M69.09 51H66V54.09H69.09V51Z" fill="black"/>
<path d="M80.678 54.09C79.957 54.09 78 51.721 78 51H81.09V53.678C81.09 53.884 80.884 54.09 80.678 54.09Z" fill="black"/>
<path d="M8.678 57.09C7.957 57.09 6 54.721 6 54H9.09V56.678C9.09 56.884 8.884 57.09 8.678 57.09Z" fill="black"/>
<path d="M14.678 57.09C13.957 57.09 12 54.721 12 54H15.09V56.678C15.09 56.884 14.884 57.09 14.678 57.09Z" fill="black"/>
<path d="M20.678 57.09C19.957 57.09 18 54.721 18 54H21.09V56.678C21.09 56.884 20.884 57.09 20.678 57.09Z" fill="black"/>
<path d="M26.781 55.4421C26.3175 54.5666 25.339 53.9486 24.618 54.0001C23.9485 54.0516 23.794 54.8241 24.2575 55.6481C24.7725 56.5236 25.6995 57.1416 26.4205 57.0901C27.1415 57.0386 27.296 56.2661 26.781 55.4421Z" fill="black"/>
<path d="M39.09 57.09H36V55.03C36 54.4635 36.4635 54 37.03 54H39.09V57.09Z" fill="black"/>
<path d="M39 54H42.09V56.06C42.09 56.6265 41.6265 57.09 41.06 57.09H39V54Z" fill="black"/>
<path d="M45 56.678C45 55.957 47.369 54 48.09 54V57.09H45.412C45.206 57.09 45 56.884 45 56.678Z" fill="black"/>
<path d="M51.09 54H48V57.09H51.09V54Z" fill="black"/>
<path d="M54.09 54H51V57.09H54.09V54Z" fill="black"/>
<path d="M57.09 54H54V57.09H57.09V54Z" fill="black"/>
<path d="M60.09 54H57V57.09H60.09V54Z" fill="black"/>
<path d="M63.09 54H60V57.09H63.09V54Z" fill="black"/>
<path d="M66.09 54H63V57.09H66.09V54Z" fill="black"/>
<path d="M69.09 54H66V57.09H69.09V54Z" fill="black"/>
<path d="M74.781 55.4421C74.3175 54.5666 73.339 53.9486 72.618 54.0001C71.9485 54.0516 71.794 54.8241 72.2575 55.6481C72.7725 56.5236 73.6995 57.1416 74.4205 57.0901C75.1415 57.0386 75.296 56.2661 74.781 55.4421Z" fill="black"/>
<path d="M30 59.678C30 58.957 32.369 57 33.09 57V60.09H30.412C30.206 60.09 30 59.884 30 59.678Z" fill="black"/>
<path d="M36.09 57H33V60.09H36.09V57Z" fill="black"/>
<path d="M39.09 57H36V60.09H39.09V57Z" fill="black"/>
<path d="M44.781 58.4421C44.3175 57.5666 43.339 56.9486 42.618 57.0001C41.9485 57.0516 41.794 57.8241 42.2575 58.6481C42.7725 59.5236 43.6995 60.1416 44.4205 60.0901C45.1415 60.0386 45.296 59.2661 44.781 58.4421Z" fill="black"/>
<path d="M57.09 57H54V60.09H57.09V57Z" fill="black"/>
<path d="M69.09 57H66V60.09H69.09V57Z" fill="black"/>
<path d="M72.09 57.412C72.09 58.133 69.721 60.09 69 60.09V57H71.678C71.884 57 72.09 57.206 72.09 57.412Z" fill="black"/>
<path d="M39.09 60H36V63.09H39.09V60Z" fill="black"/>
<path d="M48.412 60C49.133 60 51.09 62.369 51.09 63.09H48V60.412C48 60.206 48.206 60 48.412 60Z" fill="black"/>
<path d="M57.09 60H54V63.09H57.09V60Z" fill="black"/>
<path d="M62.781 61.4421C62.3175 60.5666 61.339 59.9486 60.618 60.0001C59.9485 60.0516 59.794 60.8241 60.2575 61.6481C60.7725 62.5236 61.6995 63.1416 62.4205 63.0901C63.1415 63.0386 63.296 62.2661 62.781 61.4421Z" fill="black"/>
<path d="M69.09 60H66V63.09H69.09V60Z" fill="black"/>
<path d="M72 62.678C72 61.957 74.369 60 75.09 60V63.09H72.412C72.206 63.09 72 62.884 72 62.678Z" fill="black"/>
<path d="M78.09 60H75V63.09H78.09V60Z" fill="black"/>
<path d="M81.09 60.412C81.09 61.133 78.721 63.09 78 63.09V60H80.678C80.884 60 81.09 60.206 81.09 60.412Z" fill="black"/>
<path d="M33.09 66.09H30V64.03C30 63.4635 30.4635 63 31.03 63H33.09V66.09Z" fill="black"/>
<path d="M36.09 63H33V66.09H36.09V63Z" fill="black"/>
<path d="M39.09 63H36V66.09H39.09V63Z" fill="black"/>
<path d="M42.412 63C43.133 63 45.09 65.369 45.09 66.09H42V63.412C42 63.206 42.206 63 42.412 63Z" fill="black"/>
<path d="M51.09 63H48V66.09H51.09V63Z" fill="black"/>
<path d="M57.09 63H54V66.09H57.09V63Z" fill="black"/>
<path d="M69.09 63H66V66.09H69.09V63Z" fill="black"/>
<path d="M72.09 63.412C72.09 64.133 69.721 66.09 69 66.09V63H71.678C71.884 63 72.09 63.206 72.09 63.412Z" fill="black"/>
<path d="M78.09 63H75V66.09H78.09V63Z" fill="black"/>
<path d="M33.09 66H30V69.09H33.09V66Z" fill="black"/>
<path d="M36.09 66H33V69.09H36.09V66Z" fill="black"/>
<path d="M39.09 66H36V69.09H39.09V66Z" fill="black"/>
<path d="M45.09 66V69.09H43.03C42.4635 69.09 42 68.6265 42 68.06V66H45.09Z" fill="black"/>
<path d="M48.09 66H45V69.09H48.09V66Z" fill="black"/>
<path d="M51.09 66H48V69.09H51.09V66Z" fill="black"/>
<path d="M54.09 66H51V69.09H54.09V66Z" fill="black"/>
<path d="M57.09 66H54V69.09H57.09V66Z" fill="black"/>
<path d="M60.09 66H57V69.09H60.09V66Z" fill="black"/>
<path d="M63.09 66H60V69.09H63.09V66Z" fill="black"/>
<path d="M66.09 66H63V69.09H66.09V66Z" fill="black"/>
<path d="M69.09 66H66V69.09H69.09V66Z" fill="black"/>
<path d="M75.09 69.09H72V67.03C72 66.4635 72.4635 66 73.03 66H75.09V69.09Z" fill="black"/>
<path d="M78.09 66H75V69.09H78.09V66Z" fill="black"/>
<path d="M78 69.09V66H80.06C80.6265 66 81.09 66.4635 81.09 67.03V69.09H78Z" fill="black"/>
<path d="M33.09 69H30V72.09H33.09V69Z" fill="black"/>
<path d="M39.09 69H36V72.09H39.09V69Z" fill="black"/>
<path d="M50.678 72.09C49.957 72.09 48 69.721 48 69H51.09V71.678C51.09 71.884 50.884 72.09 50.678 72.09Z" fill="black"/>
<path d="M57.09 69H54V72.09H57.09V69Z" fill="black"/>
<path d="M60.09 69H57V72.09H60.09V69Z" fill="black"/>
<path d="M60 69H63.09V71.06C63.09 71.6265 62.6265 72.09 62.06 72.09H60V69Z" fill="black"/>
<path d="M69.09 69V72.09H67.03C66.4635 72.09 66 71.6265 66 71.06V69H69.09Z" fill="black"/>
<path d="M72.09 69H69V72.09H72.09V69Z" fill="black"/>
<path d="M75.09 69H72V72.09H75.09V69Z" fill="black"/>
<path d="M78.09 69H75V72.09H78.09V69Z" fill="black"/>
<path d="M81.09 69H78V72.09H81.09V69Z" fill="black"/>
<path d="M32.678 75.09C31.957 75.09 30 72.721 30 72H33.09V74.678C33.09 74.884 32.884 75.09 32.678 75.09Z" fill="black"/>
<path d="M39.09 72V75.09H37.03C36.4635 75.09 36 74.6265 36 74.06V72H39.09Z" fill="black"/>
<path d="M42.09 72H39V75.09H42.09V72Z" fill="black"/>
<path d="M45.09 72H42V75.09H45.09V72Z" fill="black"/>
<path d="M48.09 72.412C48.09 73.133 45.721 75.09 45 75.09V72H47.678C47.884 72 48.09 72.206 48.09 72.412Z" fill="black"/>
<path d="M57.09 72H54V75.09H57.09V72Z" fill="black"/>
<path d="M72.09 72H69V75.09H72.09V72Z" fill="black"/>
<path d="M72 72H75.09V74.06C75.09 74.6265 74.6265 75.09 74.06 75.09H72V72Z" fill="black"/>
<path d="M81.09 72H78V75.09H81.09V72Z" fill="black"/>
<path d="M35.781 76.4421C35.3175 75.5666 34.339 74.9486 33.618 75.0001C32.9485 75.0516 32.794 75.8241 33.2575 76.6481C33.7725 77.5236 34.6995 78.1416 35.4205 78.0901C36.1415 78.0386 36.296 77.2661 35.781 76.4421Z" fill="black"/>
<path d="M42.09 75H39V78.09H42.09V75Z" fill="black"/>
<path d="M54.09 78.09H51V76.03C51 75.4635 51.4635 75 52.03 75H54.09V78.09Z" fill="black"/>
<path d="M57.09 75H54V78.09H57.09V75Z" fill="black"/>
<path d="M60.09 75H57V78.09H60.09V75Z" fill="black"/>
<path d="M63.09 75H60V78.09H63.09V75Z" fill="black"/>
<path d="M66.09 75H63V78.09H66.09V75Z" fill="black"/>
<path d="M69.09 75H66V78.09H69.09V75Z" fill="black"/>
<path d="M72.09 75H69V78.09H72.09V75Z" fill="black"/>
<path d="M81.09 75H78V78.09H81.09V75Z" fill="black"/>
<path d="M32.781 79.4421C32.3175 78.5666 31.339 77.9486 30.618 78.0001C29.9485 78.0516 29.794 78.8241 30.2575 79.6481C30.7725 80.5236 31.6995 81.1416 32.4205 81.0901C33.1415 81.0386 33.296 80.2661 32.781 79.4421Z" fill="black"/>
<path d="M36 80.678C36 79.957 38.369 78 39.09 78V81.09H36.412C36.206 81.09 36 80.884 36 80.678Z" fill="black"/>
<path d="M42.09 78H39V81.09H42.09V78Z" fill="black"/>
<path d="M45.09 78.412C45.09 79.133 42.721 81.09 42 81.09V78H44.678C44.884 78 45.09 78.206 45.09 78.412Z" fill="black"/>
<path d="M53.678 81.09C52.957 81.09 51 78.721 51 78H54.09V80.678C54.09 80.884 53.884 81.09 53.678 81.09Z" fill="black"/>
<path d="M60.09 78V81.09H58.03C57.4635 81.09 57 80.6265 57 80.06V78H60.09Z" fill="black"/>
<path d="M63.09 78H60V81.09H63.09V78Z" fill="black"/>
<path d="M66.09 78H63V81.09H66.09V78Z" fill="black"/>
<path d="M69.09 78H66V81.09H69.09V78Z" fill="black"/>
<path d="M72.09 78H69V81.09H72.09V78Z" fill="black"/>
<path d="M75.09 78H72V81.09H75.09V78Z" fill="black"/>
<path d="M78.09 78H75V81.09H78.09V78Z" fill="black"/>
<path d="M78 78H81.09V80.06C81.09 80.6265 80.6265 81.09 80.06 81.09H78V78Z" fill="black"/>
<path d="M6.00024 6V20.4C6.00024 24 9.00024 27 12.6002 27H20.2502C24.0002 27 27.0002 24 27.0002 20.4V12.6C27.0002 9 24.0002 6 20.4002 6H6.00024ZM19.8002 24H13.2002C10.9502 24 9.00024 22.05 9.00024 19.8V9H19.8002C22.0502 9 24.0002 10.95 24.0002 13.2V19.8C24.0002 22.05 22.0502 24 19.8002 24Z" fill="black"/>
<path d="M81 6L66.6 6C63 6 60 9 60 12.6V20.25C60 24 63 27 66.6 27H74.4C78 27 81 24 81 20.4V6ZM63 19.8V13.2C63 10.95 64.95 9 67.2 9H78V19.8C78 22.05 76.05 24 73.8 24H67.2C64.95 24 63 22.05 63 19.8Z" fill="black"/>
<path d="M6 81H20.4C24 81 27 78 27 74.4V66.75C27 63 24 60 20.4 60H12.6C9 60 6 63 6 66.6L6 81ZM24 67.2V73.8C24 76.05 22.05 78 19.8 78H9V67.2C9 64.95 10.95 63 13.2 63H19.8C22.05 63 24 64.95 24 67.2Z" fill="black"/>
<path d="M16.5 21C18.9853 21 21 18.9853 21 16.5C21 14.0147 18.9853 12 16.5 12C14.0147 12 12 14.0147 12 16.5C12 18.9853 14.0147 21 16.5 21Z" fill="black"/>
<path d="M70.5 21C72.9853 21 75 18.9853 75 16.5C75 14.0147 72.9853 12 70.5 12C68.0147 12 66 14.0147 66 16.5C66 18.9853 68.0147 21 70.5 21Z" fill="black"/>
<path d="M16.5 75C18.9853 75 21 72.9853 21 70.5C21 68.0147 18.9853 66 16.5 66C14.0147 66 12 68.0147 12 70.5C12 72.9853 14.0147 75 16.5 75Z" fill="black"/>
</g>
<defs>
<clipPath id="clip0_48_80">
<rect width="87" height="87" fill="white"/>
</clipPath>
</defs>
</svg>
