<svg width="214" height="214" viewBox="0 0 214 214" fill="none" xmlns="http://www.w3.org/2000/svg">
<g clip-path="url(#clip0_27_682)">
<path d="M214 0H0V214H214V0Z" fill="white"/>
<path d="M63.7952 11.5676H57.8379V17.5249H63.7952V11.5676Z" fill="black"/>
<path d="M69.579 11.5676H63.6217V17.5249H69.579V11.5676Z" fill="black"/>
<path d="M75.3628 11.5676H69.4055V17.5249H75.3628V11.5676Z" fill="black"/>
<path d="M86.9303 11.5676H80.973V17.5249H86.9303V11.5676Z" fill="black"/>
<path d="M92.7141 11.5676H86.7568V17.5249H92.7141V11.5676Z" fill="black"/>
<path d="M104.282 11.5676H98.3243V17.5249H104.282V11.5676Z" fill="black"/>
<path d="M115.849 11.5676H109.892V17.5249H115.849V11.5676Z" fill="black"/>
<path d="M127.417 11.5676H121.459V17.5249H127.417V11.5676Z" fill="black"/>
<path d="M133.201 11.5676H127.243V17.5249H133.201V11.5676Z" fill="black"/>
<path d="M150.552 11.5676H144.595V17.5249H150.552V11.5676Z" fill="black"/>
<path d="M156.336 11.5676H150.378V17.5249H156.336V11.5676Z" fill="black"/>
<path d="M63.7952 17.3513H57.8379V23.3086H63.7952V17.3513Z" fill="black"/>
<path d="M69.579 17.3513H63.6217V23.3086H69.579V17.3513Z" fill="black"/>
<path d="M86.9303 17.3513H80.973V23.3086H86.9303V17.3513Z" fill="black"/>
<path d="M92.7141 17.3513H86.7568V23.3086H92.7141V17.3513Z" fill="black"/>
<path d="M104.282 17.3513H98.3243V23.3086H104.282V17.3513Z" fill="black"/>
<path d="M110.065 17.3513H104.108V23.3086H110.065V17.3513Z" fill="black"/>
<path d="M115.849 17.3513H109.892V23.3086H115.849V17.3513Z" fill="black"/>
<path d="M121.633 17.3513H115.676V23.3086H121.633V17.3513Z" fill="black"/>
<path d="M133.201 17.3513H127.243V23.3086H133.201V17.3513Z" fill="black"/>
<path d="M144.768 17.3513H138.811V23.3086H144.768V17.3513Z" fill="black"/>
<path d="M156.336 17.3513H150.378V23.3086H156.336V17.3513Z" fill="black"/>
<path d="M63.7952 23.1353H57.8379V29.0926H63.7952V23.1353Z" fill="black"/>
<path d="M69.579 23.1353H63.6217V29.0926H69.579V23.1353Z" fill="black"/>
<path d="M92.7141 23.1353H86.7568V29.0926H92.7141V23.1353Z" fill="black"/>
<path d="M115.849 23.1353H109.892V29.0926H115.849V23.1353Z" fill="black"/>
<path d="M133.201 23.1353H127.243V29.0926H133.201V23.1353Z" fill="black"/>
<path d="M138.984 23.1353H133.027V29.0926H138.984V23.1353Z" fill="black"/>
<path d="M144.768 23.1353H138.811V29.0926H144.768V23.1353Z" fill="black"/>
<path d="M150.552 23.1353H144.595V29.0926H150.552V23.1353Z" fill="black"/>
<path d="M156.336 23.1353H150.378V29.0926H156.336V23.1353Z" fill="black"/>
<path d="M69.579 28.9189H63.6217V34.8762H69.579V28.9189Z" fill="black"/>
<path d="M81.1465 28.9189H75.1892V34.8762H81.1465V28.9189Z" fill="black"/>
<path d="M104.282 28.9189H98.3243V34.8762H104.282V28.9189Z" fill="black"/>
<path d="M110.065 28.9189H104.108V34.8762H110.065V28.9189Z" fill="black"/>
<path d="M115.849 28.9189H109.892V34.8762H115.849V28.9189Z" fill="black"/>
<path d="M121.633 28.9189H115.676V34.8762H121.633V28.9189Z" fill="black"/>
<path d="M133.201 28.9189H127.243V34.8762H133.201V28.9189Z" fill="black"/>
<path d="M144.768 28.9189H138.811V34.8762H144.768V28.9189Z" fill="black"/>
<path d="M150.552 28.9189H144.595V34.8762H150.552V28.9189Z" fill="black"/>
<path d="M69.579 34.7029H63.6217V40.6602H69.579V34.7029Z" fill="black"/>
<path d="M98.4979 34.7029H92.5406V40.6602H98.4979V34.7029Z" fill="black"/>
<path d="M115.849 34.7029H109.892V40.6602H115.849V34.7029Z" fill="black"/>
<path d="M121.633 34.7029H115.676V40.6602H121.633V34.7029Z" fill="black"/>
<path d="M156.336 34.7029H150.378V40.6602H156.336V34.7029Z" fill="black"/>
<path d="M63.7952 40.4866H57.8379V46.4439H63.7952V40.4866Z" fill="black"/>
<path d="M69.579 40.4866H63.6217V46.4439H69.579V40.4866Z" fill="black"/>
<path d="M81.1465 40.4866H75.1892V46.4439H81.1465V40.4866Z" fill="black"/>
<path d="M86.9303 40.4866H80.973V46.4439H86.9303V40.4866Z" fill="black"/>
<path d="M98.4979 40.4866H92.5406V46.4439H98.4979V40.4866Z" fill="black"/>
<path d="M138.984 40.4866H133.027V46.4439H138.984V40.4866Z" fill="black"/>
<path d="M144.768 40.4866H138.811V46.4439H144.768V40.4866Z" fill="black"/>
<path d="M63.7952 46.2703H57.8379V52.2276H63.7952V46.2703Z" fill="black"/>
<path d="M75.3628 46.2703H69.4055V52.2276H75.3628V46.2703Z" fill="black"/>
<path d="M86.9303 46.2703H80.973V52.2276H86.9303V46.2703Z" fill="black"/>
<path d="M98.4979 46.2703H92.5406V52.2276H98.4979V46.2703Z" fill="black"/>
<path d="M110.065 46.2703H104.108V52.2276H110.065V46.2703Z" fill="black"/>
<path d="M121.633 46.2703H115.676V52.2276H121.633V46.2703Z" fill="black"/>
<path d="M133.201 46.2703H127.243V52.2276H133.201V46.2703Z" fill="black"/>
<path d="M144.768 46.2703H138.811V52.2276H144.768V46.2703Z" fill="black"/>
<path d="M156.336 46.2703H150.378V52.2276H156.336V46.2703Z" fill="black"/>
<path d="M63.7952 52.0542H57.8379V58.0115H63.7952V52.0542Z" fill="black"/>
<path d="M75.3628 52.0542H69.4055V58.0115H75.3628V52.0542Z" fill="black"/>
<path d="M81.1465 52.0542H75.1892V58.0115H81.1465V52.0542Z" fill="black"/>
<path d="M92.7141 52.0542H86.7568V58.0115H92.7141V52.0542Z" fill="black"/>
<path d="M110.065 52.0542H104.108V58.0115H110.065V52.0542Z" fill="black"/>
<path d="M121.633 52.0542H115.676V58.0115H121.633V52.0542Z" fill="black"/>
<path d="M133.201 52.0542H127.243V58.0115H133.201V52.0542Z" fill="black"/>
<path d="M138.984 52.0542H133.027V58.0115H138.984V52.0542Z" fill="black"/>
<path d="M156.336 52.0542H150.378V58.0115H156.336V52.0542Z" fill="black"/>
<path d="M29.0926 57.8379H23.1353V63.7952H29.0926V57.8379Z" fill="black"/>
<path d="M34.8762 57.8379H28.9189V63.7952H34.8762V57.8379Z" fill="black"/>
<path d="M40.6601 57.8379H34.7028V63.7952H40.6601V57.8379Z" fill="black"/>
<path d="M52.2277 57.8379H46.2704V63.7952H52.2277V57.8379Z" fill="black"/>
<path d="M63.7952 57.8379H57.8379V63.7952H63.7952V57.8379Z" fill="black"/>
<path d="M75.3628 57.8379H69.4055V63.7952H75.3628V57.8379Z" fill="black"/>
<path d="M92.7141 57.8379H86.7568V63.7952H92.7141V57.8379Z" fill="black"/>
<path d="M104.282 57.8379H98.3243V63.7952H104.282V57.8379Z" fill="black"/>
<path d="M110.065 57.8379H104.108V63.7952H110.065V57.8379Z" fill="black"/>
<path d="M115.849 57.8379H109.892V63.7952H115.849V57.8379Z" fill="black"/>
<path d="M127.417 57.8379H121.459V63.7952H127.417V57.8379Z" fill="black"/>
<path d="M133.201 57.8379H127.243V63.7952H133.201V57.8379Z" fill="black"/>
<path d="M144.768 57.8379H138.811V63.7952H144.768V57.8379Z" fill="black"/>
<path d="M156.336 57.8379H150.378V63.7952H156.336V57.8379Z" fill="black"/>
<path d="M162.119 57.8379H156.162V63.7952H162.119V57.8379Z" fill="black"/>
<path d="M167.903 57.8379H161.946V63.7952H167.903V57.8379Z" fill="black"/>
<path d="M173.687 57.8379H167.73V63.7952H173.687V57.8379Z" fill="black"/>
<path d="M191.038 57.8379H185.081V63.7952H191.038V57.8379Z" fill="black"/>
<path d="M196.822 57.8379H190.865V63.7952H196.822V57.8379Z" fill="black"/>
<path d="M202.606 57.8379H196.649V63.7952H202.606V57.8379Z" fill="black"/>
<path d="M17.5249 63.6216H11.5676V69.5789H17.5249V63.6216Z" fill="black"/>
<path d="M23.3087 63.6216H17.3514V69.5789H23.3087V63.6216Z" fill="black"/>
<path d="M34.8762 63.6216H28.9189V69.5789H34.8762V63.6216Z" fill="black"/>
<path d="M63.7952 63.6216H57.8379V69.5789H63.7952V63.6216Z" fill="black"/>
<path d="M75.3628 63.6216H69.4055V69.5789H75.3628V63.6216Z" fill="black"/>
<path d="M86.9303 63.6216H80.973V69.5789H86.9303V63.6216Z" fill="black"/>
<path d="M92.7141 63.6216H86.7568V69.5789H92.7141V63.6216Z" fill="black"/>
<path d="M98.4979 63.6216H92.5406V69.5789H98.4979V63.6216Z" fill="black"/>
<path d="M133.201 63.6216H127.243V69.5789H133.201V63.6216Z" fill="black"/>
<path d="M144.768 63.6216H138.811V69.5789H144.768V63.6216Z" fill="black"/>
<path d="M150.552 63.6216H144.595V69.5789H150.552V63.6216Z" fill="black"/>
<path d="M156.336 63.6216H150.378V69.5789H156.336V63.6216Z" fill="black"/>
<path d="M162.119 63.6216H156.162V69.5789H162.119V63.6216Z" fill="black"/>
<path d="M167.903 63.6216H161.946V69.5789H167.903V63.6216Z" fill="black"/>
<path d="M185.255 63.6216H179.297V69.5789H185.255V63.6216Z" fill="black"/>
<path d="M202.606 63.6216H196.649V69.5789H202.606V63.6216Z" fill="black"/>
<path d="M29.0926 69.4055H23.1353V75.3628H29.0926V69.4055Z" fill="black"/>
<path d="M40.6601 69.4055H34.7028V75.3628H40.6601V69.4055Z" fill="black"/>
<path d="M52.2277 69.4055H46.2704V75.3628H52.2277V69.4055Z" fill="black"/>
<path d="M69.579 69.4055H63.6217V75.3628H69.579V69.4055Z" fill="black"/>
<path d="M81.1465 69.4055H75.1892V75.3628H81.1465V69.4055Z" fill="black"/>
<path d="M86.9303 69.4055H80.973V75.3628H86.9303V69.4055Z" fill="black"/>
<path d="M98.4979 69.4055H92.5406V75.3628H98.4979V69.4055Z" fill="black"/>
<path d="M115.849 69.4055H109.892V75.3628H115.849V69.4055Z" fill="black"/>
<path d="M127.417 69.4055H121.459V75.3628H127.417V69.4055Z" fill="black"/>
<path d="M133.201 69.4055H127.243V75.3628H133.201V69.4055Z" fill="black"/>
<path d="M144.768 69.4055H138.811V75.3628H144.768V69.4055Z" fill="black"/>
<path d="M150.552 69.4055H144.595V75.3628H150.552V69.4055Z" fill="black"/>
<path d="M167.903 69.4055H161.946V75.3628H167.903V69.4055Z" fill="black"/>
<path d="M173.687 69.4055H167.73V75.3628H173.687V69.4055Z" fill="black"/>
<path d="M196.822 69.4055H190.865V75.3628H196.822V69.4055Z" fill="black"/>
<path d="M23.3087 75.1892H17.3514V81.1465H23.3087V75.1892Z" fill="black"/>
<path d="M29.0926 75.1892H23.1353V81.1465H29.0926V75.1892Z" fill="black"/>
<path d="M34.8762 75.1892H28.9189V81.1465H34.8762V75.1892Z" fill="black"/>
<path d="M40.6601 75.1892H34.7028V81.1465H40.6601V75.1892Z" fill="black"/>
<path d="M46.4439 75.1892H40.4866V81.1465H46.4439V75.1892Z" fill="black"/>
<path d="M58.0114 75.1892H52.0541V81.1465H58.0114V75.1892Z" fill="black"/>
<path d="M63.7952 75.1892H57.8379V81.1465H63.7952V75.1892Z" fill="black"/>
<path d="M69.579 75.1892H63.6217V81.1465H69.579V75.1892Z" fill="black"/>
<path d="M86.9303 75.1892H80.973V81.1465H86.9303V75.1892Z" fill="black"/>
<path d="M92.7141 75.1892H86.7568V81.1465H92.7141V75.1892Z" fill="black"/>
<path d="M98.4979 75.1892H92.5406V81.1465H98.4979V75.1892Z" fill="black"/>
<path d="M104.282 75.1892H98.3243V81.1465H104.282V75.1892Z" fill="black"/>
<path d="M110.065 75.1892H104.108V81.1465H110.065V75.1892Z" fill="black"/>
<path d="M115.849 75.1892H109.892V81.1465H115.849V75.1892Z" fill="black"/>
<path d="M121.633 75.1892H115.676V81.1465H121.633V75.1892Z" fill="black"/>
<path d="M133.201 75.1892H127.243V81.1465H133.201V75.1892Z" fill="black"/>
<path d="M156.336 75.1892H150.378V81.1465H156.336V75.1892Z" fill="black"/>
<path d="M162.119 75.1892H156.162V81.1465H162.119V75.1892Z" fill="black"/>
<path d="M191.038 75.1892H185.081V81.1465H191.038V75.1892Z" fill="black"/>
<path d="M196.822 75.1892H190.865V81.1465H196.822V75.1892Z" fill="black"/>
<path d="M17.5249 80.9731H11.5676V86.9304H17.5249V80.9731Z" fill="black"/>
<path d="M23.3087 80.9731H17.3514V86.9304H23.3087V80.9731Z" fill="black"/>
<path d="M34.8762 80.9731H28.9189V86.9304H34.8762V80.9731Z" fill="black"/>
<path d="M46.4439 80.9731H40.4866V86.9304H46.4439V80.9731Z" fill="black"/>
<path d="M52.2277 80.9731H46.2704V86.9304H52.2277V80.9731Z" fill="black"/>
<path d="M69.579 80.9731H63.6217V86.9304H69.579V80.9731Z" fill="black"/>
<path d="M75.3628 80.9731H69.4055V86.9304H75.3628V80.9731Z" fill="black"/>
<path d="M92.7141 80.9731H86.7568V86.9304H92.7141V80.9731Z" fill="black"/>
<path d="M98.4979 80.9731H92.5406V86.9304H98.4979V80.9731Z" fill="black"/>
<path d="M104.282 80.9731H98.3243V86.9304H104.282V80.9731Z" fill="black"/>
<path d="M115.849 80.9731H109.892V86.9304H115.849V80.9731Z" fill="black"/>
<path d="M138.984 80.9731H133.027V86.9304H138.984V80.9731Z" fill="black"/>
<path d="M144.768 80.9731H138.811V86.9304H144.768V80.9731Z" fill="black"/>
<path d="M150.552 80.9731H144.595V86.9304H150.552V80.9731Z" fill="black"/>
<path d="M156.336 80.9731H150.378V86.9304H156.336V80.9731Z" fill="black"/>
<path d="M173.687 80.9731H167.73V86.9304H173.687V80.9731Z" fill="black"/>
<path d="M17.5249 86.7568H11.5676V92.7141H17.5249V86.7568Z" fill="black"/>
<path d="M34.8762 86.7568H28.9189V92.7141H34.8762V86.7568Z" fill="black"/>
<path d="M63.7952 86.7568H57.8379V92.7141H63.7952V86.7568Z" fill="black"/>
<path d="M69.579 86.7568H63.6217V92.7141H69.579V86.7568Z" fill="black"/>
<path d="M75.3628 86.7568H69.4055V92.7141H75.3628V86.7568Z" fill="black"/>
<path d="M81.1465 86.7568H75.1892V92.7141H81.1465V86.7568Z" fill="black"/>
<path d="M98.4979 86.7568H92.5406V92.7141H98.4979V86.7568Z" fill="black"/>
<path d="M110.065 86.7568H104.108V92.7141H110.065V86.7568Z" fill="black"/>
<path d="M115.849 86.7568H109.892V92.7141H115.849V86.7568Z" fill="black"/>
<path d="M150.552 86.7568H144.595V92.7141H150.552V86.7568Z" fill="black"/>
<path d="M167.903 86.7568H161.946V92.7141H167.903V86.7568Z" fill="black"/>
<path d="M179.471 86.7568H173.514V92.7141H179.471V86.7568Z" fill="black"/>
<path d="M185.255 86.7568H179.297V92.7141H185.255V86.7568Z" fill="black"/>
<path d="M202.606 86.7568H196.649V92.7141H202.606V86.7568Z" fill="black"/>
<path d="M17.5249 92.5405H11.5676V98.4978H17.5249V92.5405Z" fill="black"/>
<path d="M23.3087 92.5405H17.3514V98.4978H23.3087V92.5405Z" fill="black"/>
<path d="M34.8762 92.5405H28.9189V98.4978H34.8762V92.5405Z" fill="black"/>
<path d="M46.4439 92.5405H40.4866V98.4978H46.4439V92.5405Z" fill="black"/>
<path d="M52.2277 92.5405H46.2704V98.4978H52.2277V92.5405Z" fill="black"/>
<path d="M69.579 92.5405H63.6217V98.4978H69.579V92.5405Z" fill="black"/>
<path d="M81.1465 92.5405H75.1892V98.4978H81.1465V92.5405Z" fill="black"/>
<path d="M86.9303 92.5405H80.973V98.4978H86.9303V92.5405Z" fill="black"/>
<path d="M92.7141 92.5405H86.7568V98.4978H92.7141V92.5405Z" fill="black"/>
<path d="M104.282 92.5405H98.3243V98.4978H104.282V92.5405Z" fill="black"/>
<path d="M115.849 92.5405H109.892V98.4978H115.849V92.5405Z" fill="black"/>
<path d="M127.417 92.5405H121.459V98.4978H127.417V92.5405Z" fill="black"/>
<path d="M144.768 92.5405H138.811V98.4978H144.768V92.5405Z" fill="black"/>
<path d="M167.903 92.5405H161.946V98.4978H167.903V92.5405Z" fill="black"/>
<path d="M173.687 92.5405H167.73V98.4978H173.687V92.5405Z" fill="black"/>
<path d="M179.471 92.5405H173.514V98.4978H179.471V92.5405Z" fill="black"/>
<path d="M196.822 92.5405H190.865V98.4978H196.822V92.5405Z" fill="black"/>
<path d="M29.0926 98.3245H23.1353V104.282H29.0926V98.3245Z" fill="black"/>
<path d="M40.6601 98.3245H34.7028V104.282H40.6601V98.3245Z" fill="black"/>
<path d="M58.0114 98.3245H52.0541V104.282H58.0114V98.3245Z" fill="black"/>
<path d="M63.7952 98.3245H57.8379V104.282H63.7952V98.3245Z" fill="black"/>
<path d="M69.579 98.3245H63.6217V104.282H69.579V98.3245Z" fill="black"/>
<path d="M75.3628 98.3245H69.4055V104.282H75.3628V98.3245Z" fill="black"/>
<path d="M81.1465 98.3245H75.1892V104.282H81.1465V98.3245Z" fill="black"/>
<path d="M86.9303 98.3245H80.973V104.282H86.9303V98.3245Z" fill="black"/>
<path d="M92.7141 98.3245H86.7568V104.282H92.7141V98.3245Z" fill="black"/>
<path d="M98.4979 98.3245H92.5406V104.282H98.4979V98.3245Z" fill="black"/>
<path d="M121.633 98.3245H115.676V104.282H121.633V98.3245Z" fill="black"/>
<path d="M138.984 98.3245H133.027V104.282H138.984V98.3245Z" fill="black"/>
<path d="M144.768 98.3245H138.811V104.282H144.768V98.3245Z" fill="black"/>
<path d="M150.552 98.3245H144.595V104.282H150.552V98.3245Z" fill="black"/>
<path d="M156.336 98.3245H150.378V104.282H156.336V98.3245Z" fill="black"/>
<path d="M162.119 98.3245H156.162V104.282H162.119V98.3245Z" fill="black"/>
<path d="M167.903 98.3245H161.946V104.282H167.903V98.3245Z" fill="black"/>
<path d="M179.471 98.3245H173.514V104.282H179.471V98.3245Z" fill="black"/>
<path d="M185.255 98.3245H179.297V104.282H185.255V98.3245Z" fill="black"/>
<path d="M202.606 98.3245H196.649V104.282H202.606V98.3245Z" fill="black"/>
<path d="M17.5249 104.108H11.5676V110.065H17.5249V104.108Z" fill="black"/>
<path d="M23.3087 104.108H17.3514V110.065H23.3087V104.108Z" fill="black"/>
<path d="M52.2277 104.108H46.2704V110.065H52.2277V104.108Z" fill="black"/>
<path d="M63.7952 104.108H57.8379V110.065H63.7952V104.108Z" fill="black"/>
<path d="M69.579 104.108H63.6217V110.065H69.579V104.108Z" fill="black"/>
<path d="M86.9303 104.108H80.973V110.065H86.9303V104.108Z" fill="black"/>
<path d="M92.7141 104.108H86.7568V110.065H92.7141V104.108Z" fill="black"/>
<path d="M104.282 104.108H98.3243V110.065H104.282V104.108Z" fill="black"/>
<path d="M110.065 104.108H104.108V110.065H110.065V104.108Z" fill="black"/>
<path d="M127.417 104.108H121.459V110.065H127.417V104.108Z" fill="black"/>
<path d="M167.903 104.108H161.946V110.065H167.903V104.108Z" fill="black"/>
<path d="M191.038 104.108H185.081V110.065H191.038V104.108Z" fill="black"/>
<path d="M17.5249 109.892H11.5676V115.849H17.5249V109.892Z" fill="black"/>
<path d="M46.4439 109.892H40.4866V115.849H46.4439V109.892Z" fill="black"/>
<path d="M58.0114 109.892H52.0541V115.849H58.0114V109.892Z" fill="black"/>
<path d="M69.579 109.892H63.6217V115.849H69.579V109.892Z" fill="black"/>
<path d="M98.4979 109.892H92.5406V115.849H98.4979V109.892Z" fill="black"/>
<path d="M150.552 109.892H144.595V115.849H150.552V109.892Z" fill="black"/>
<path d="M156.336 109.892H150.378V115.849H156.336V109.892Z" fill="black"/>
<path d="M162.119 109.892H156.162V115.849H162.119V109.892Z" fill="black"/>
<path d="M173.687 109.892H167.73V115.849H173.687V109.892Z" fill="black"/>
<path d="M179.471 109.892H173.514V115.849H179.471V109.892Z" fill="black"/>
<path d="M23.3087 115.676H17.3514V121.633H23.3087V115.676Z" fill="black"/>
<path d="M29.0926 115.676H23.1353V121.633H29.0926V115.676Z" fill="black"/>
<path d="M34.8762 115.676H28.9189V121.633H34.8762V115.676Z" fill="black"/>
<path d="M52.2277 115.676H46.2704V121.633H52.2277V115.676Z" fill="black"/>
<path d="M75.3628 115.676H69.4055V121.633H75.3628V115.676Z" fill="black"/>
<path d="M81.1465 115.676H75.1892V121.633H81.1465V115.676Z" fill="black"/>
<path d="M98.4979 115.676H92.5406V121.633H98.4979V115.676Z" fill="black"/>
<path d="M104.282 115.676H98.3243V121.633H104.282V115.676Z" fill="black"/>
<path d="M115.849 115.676H109.892V121.633H115.849V115.676Z" fill="black"/>
<path d="M127.417 115.676H121.459V121.633H127.417V115.676Z" fill="black"/>
<path d="M133.201 115.676H127.243V121.633H133.201V115.676Z" fill="black"/>
<path d="M138.984 115.676H133.027V121.633H138.984V115.676Z" fill="black"/>
<path d="M144.768 115.676H138.811V121.633H144.768V115.676Z" fill="black"/>
<path d="M179.471 115.676H173.514V121.633H179.471V115.676Z" fill="black"/>
<path d="M191.038 115.676H185.081V121.633H191.038V115.676Z" fill="black"/>
<path d="M23.3087 121.459H17.3514V127.417H23.3087V121.459Z" fill="black"/>
<path d="M29.0926 121.459H23.1353V127.417H29.0926V121.459Z" fill="black"/>
<path d="M40.6601 121.459H34.7028V127.417H40.6601V121.459Z" fill="black"/>
<path d="M58.0114 121.459H52.0541V127.417H58.0114V121.459Z" fill="black"/>
<path d="M75.3628 121.459H69.4055V127.417H75.3628V121.459Z" fill="black"/>
<path d="M81.1465 121.459H75.1892V127.417H81.1465V121.459Z" fill="black"/>
<path d="M98.4979 121.459H92.5406V127.417H98.4979V121.459Z" fill="black"/>
<path d="M104.282 121.459H98.3243V127.417H104.282V121.459Z" fill="black"/>
<path d="M110.065 121.459H104.108V127.417H110.065V121.459Z" fill="black"/>
<path d="M115.849 121.459H109.892V127.417H115.849V121.459Z" fill="black"/>
<path d="M138.984 121.459H133.027V127.417H138.984V121.459Z" fill="black"/>
<path d="M144.768 121.459H138.811V127.417H144.768V121.459Z" fill="black"/>
<path d="M150.552 121.459H144.595V127.417H150.552V121.459Z" fill="black"/>
<path d="M156.336 121.459H150.378V127.417H156.336V121.459Z" fill="black"/>
<path d="M162.119 121.459H156.162V127.417H162.119V121.459Z" fill="black"/>
<path d="M179.471 121.459H173.514V127.417H179.471V121.459Z" fill="black"/>
<path d="M185.255 121.459H179.297V127.417H185.255V121.459Z" fill="black"/>
<path d="M191.038 121.459H185.081V127.417H191.038V121.459Z" fill="black"/>
<path d="M202.606 121.459H196.649V127.417H202.606V121.459Z" fill="black"/>
<path d="M17.5249 127.243H11.5676V133.201H17.5249V127.243Z" fill="black"/>
<path d="M34.8762 127.243H28.9189V133.201H34.8762V127.243Z" fill="black"/>
<path d="M52.2277 127.243H46.2704V133.201H52.2277V127.243Z" fill="black"/>
<path d="M58.0114 127.243H52.0541V133.201H58.0114V127.243Z" fill="black"/>
<path d="M81.1465 127.243H75.1892V133.201H81.1465V127.243Z" fill="black"/>
<path d="M86.9303 127.243H80.973V133.201H86.9303V127.243Z" fill="black"/>
<path d="M92.7141 127.243H86.7568V133.201H92.7141V127.243Z" fill="black"/>
<path d="M98.4979 127.243H92.5406V133.201H98.4979V127.243Z" fill="black"/>
<path d="M104.282 127.243H98.3243V133.201H104.282V127.243Z" fill="black"/>
<path d="M110.065 127.243H104.108V133.201H110.065V127.243Z" fill="black"/>
<path d="M115.849 127.243H109.892V133.201H115.849V127.243Z" fill="black"/>
<path d="M127.417 127.243H121.459V133.201H127.417V127.243Z" fill="black"/>
<path d="M156.336 127.243H150.378V133.201H156.336V127.243Z" fill="black"/>
<path d="M173.687 127.243H167.73V133.201H173.687V127.243Z" fill="black"/>
<path d="M179.471 127.243H173.514V133.201H179.471V127.243Z" fill="black"/>
<path d="M185.255 127.243H179.297V133.201H185.255V127.243Z" fill="black"/>
<path d="M17.5249 133.027H11.5676V138.984H17.5249V133.027Z" fill="black"/>
<path d="M23.3087 133.027H17.3514V138.984H23.3087V133.027Z" fill="black"/>
<path d="M29.0926 133.027H23.1353V138.984H29.0926V133.027Z" fill="black"/>
<path d="M34.8762 133.027H28.9189V138.984H34.8762V133.027Z" fill="black"/>
<path d="M40.6601 133.027H34.7028V138.984H40.6601V133.027Z" fill="black"/>
<path d="M63.7952 133.027H57.8379V138.984H63.7952V133.027Z" fill="black"/>
<path d="M121.633 133.027H115.676V138.984H121.633V133.027Z" fill="black"/>
<path d="M127.417 133.027H121.459V138.984H127.417V133.027Z" fill="black"/>
<path d="M138.984 133.027H133.027V138.984H138.984V133.027Z" fill="black"/>
<path d="M162.119 133.027H156.162V138.984H162.119V133.027Z" fill="black"/>
<path d="M202.606 133.027H196.649V138.984H202.606V133.027Z" fill="black"/>
<path d="M17.5249 138.811H11.5676V144.768H17.5249V138.811Z" fill="black"/>
<path d="M29.0926 138.811H23.1353V144.768H29.0926V138.811Z" fill="black"/>
<path d="M40.6601 138.811H34.7028V144.768H40.6601V138.811Z" fill="black"/>
<path d="M52.2277 138.811H46.2704V144.768H52.2277V138.811Z" fill="black"/>
<path d="M75.3628 138.811H69.4055V144.768H75.3628V138.811Z" fill="black"/>
<path d="M86.9303 138.811H80.973V144.768H86.9303V138.811Z" fill="black"/>
<path d="M92.7141 138.811H86.7568V144.768H92.7141V138.811Z" fill="black"/>
<path d="M98.4979 138.811H92.5406V144.768H98.4979V138.811Z" fill="black"/>
<path d="M115.849 138.811H109.892V144.768H115.849V138.811Z" fill="black"/>
<path d="M127.417 138.811H121.459V144.768H127.417V138.811Z" fill="black"/>
<path d="M138.984 138.811H133.027V144.768H138.984V138.811Z" fill="black"/>
<path d="M150.552 138.811H144.595V144.768H150.552V138.811Z" fill="black"/>
<path d="M156.336 138.811H150.378V144.768H156.336V138.811Z" fill="black"/>
<path d="M179.471 138.811H173.514V144.768H179.471V138.811Z" fill="black"/>
<path d="M185.255 138.811H179.297V144.768H185.255V138.811Z" fill="black"/>
<path d="M191.038 138.811H185.081V144.768H191.038V138.811Z" fill="black"/>
<path d="M196.822 138.811H190.865V144.768H196.822V138.811Z" fill="black"/>
<path d="M17.5249 144.595H11.5676V150.552H17.5249V144.595Z" fill="black"/>
<path d="M29.0926 144.595H23.1353V150.552H29.0926V144.595Z" fill="black"/>
<path d="M34.8762 144.595H28.9189V150.552H34.8762V144.595Z" fill="black"/>
<path d="M63.7952 144.595H57.8379V150.552H63.7952V144.595Z" fill="black"/>
<path d="M81.1465 144.595H75.1892V150.552H81.1465V144.595Z" fill="black"/>
<path d="M86.9303 144.595H80.973V150.552H86.9303V144.595Z" fill="black"/>
<path d="M92.7141 144.595H86.7568V150.552H92.7141V144.595Z" fill="black"/>
<path d="M104.282 144.595H98.3243V150.552H104.282V144.595Z" fill="black"/>
<path d="M133.201 144.595H127.243V150.552H133.201V144.595Z" fill="black"/>
<path d="M138.984 144.595H133.027V150.552H138.984V144.595Z" fill="black"/>
<path d="M144.768 144.595H138.811V150.552H144.768V144.595Z" fill="black"/>
<path d="M150.552 144.595H144.595V150.552H150.552V144.595Z" fill="black"/>
<path d="M185.255 144.595H179.297V150.552H185.255V144.595Z" fill="black"/>
<path d="M191.038 144.595H185.081V150.552H191.038V144.595Z" fill="black"/>
<path d="M196.822 144.595H190.865V150.552H196.822V144.595Z" fill="black"/>
<path d="M202.606 144.595H196.649V150.552H202.606V144.595Z" fill="black"/>
<path d="M17.5249 150.378H11.5676V156.336H17.5249V150.378Z" fill="black"/>
<path d="M34.8762 150.378H28.9189V156.336H34.8762V150.378Z" fill="black"/>
<path d="M40.6601 150.378H34.7028V156.336H40.6601V150.378Z" fill="black"/>
<path d="M46.4439 150.378H40.4866V156.336H46.4439V150.378Z" fill="black"/>
<path d="M52.2277 150.378H46.2704V156.336H52.2277V150.378Z" fill="black"/>
<path d="M58.0114 150.378H52.0541V156.336H58.0114V150.378Z" fill="black"/>
<path d="M63.7952 150.378H57.8379V156.336H63.7952V150.378Z" fill="black"/>
<path d="M75.3628 150.378H69.4055V156.336H75.3628V150.378Z" fill="black"/>
<path d="M81.1465 150.378H75.1892V156.336H81.1465V150.378Z" fill="black"/>
<path d="M104.282 150.378H98.3243V156.336H104.282V150.378Z" fill="black"/>
<path d="M115.849 150.378H109.892V156.336H115.849V150.378Z" fill="black"/>
<path d="M121.633 150.378H115.676V156.336H121.633V150.378Z" fill="black"/>
<path d="M138.984 150.378H133.027V156.336H138.984V150.378Z" fill="black"/>
<path d="M150.552 150.378H144.595V156.336H150.552V150.378Z" fill="black"/>
<path d="M156.336 150.378H150.378V156.336H156.336V150.378Z" fill="black"/>
<path d="M162.119 150.378H156.162V156.336H162.119V150.378Z" fill="black"/>
<path d="M167.903 150.378H161.946V156.336H167.903V150.378Z" fill="black"/>
<path d="M173.687 150.378H167.73V156.336H173.687V150.378Z" fill="black"/>
<path d="M179.471 150.378H173.514V156.336H179.471V150.378Z" fill="black"/>
<path d="M185.255 150.378H179.297V156.336H185.255V150.378Z" fill="black"/>
<path d="M196.822 150.378H190.865V156.336H196.822V150.378Z" fill="black"/>
<path d="M202.606 150.378H196.649V156.336H202.606V150.378Z" fill="black"/>
<path d="M63.7952 156.162H57.8379V162.119H63.7952V156.162Z" fill="black"/>
<path d="M81.1465 156.162H75.1892V162.119H81.1465V156.162Z" fill="black"/>
<path d="M115.849 156.162H109.892V162.119H115.849V156.162Z" fill="black"/>
<path d="M121.633 156.162H115.676V162.119H121.633V156.162Z" fill="black"/>
<path d="M133.201 156.162H127.243V162.119H133.201V156.162Z" fill="black"/>
<path d="M138.984 156.162H133.027V162.119H138.984V156.162Z" fill="black"/>
<path d="M144.768 156.162H138.811V162.119H144.768V156.162Z" fill="black"/>
<path d="M156.336 156.162H150.378V162.119H156.336V156.162Z" fill="black"/>
<path d="M179.471 156.162H173.514V162.119H179.471V156.162Z" fill="black"/>
<path d="M191.038 156.162H185.081V162.119H191.038V156.162Z" fill="black"/>
<path d="M196.822 156.162H190.865V162.119H196.822V156.162Z" fill="black"/>
<path d="M202.606 156.162H196.649V162.119H202.606V156.162Z" fill="black"/>
<path d="M69.579 161.946H63.6217V167.903H69.579V161.946Z" fill="black"/>
<path d="M81.1465 161.946H75.1892V167.903H81.1465V161.946Z" fill="black"/>
<path d="M86.9303 161.946H80.973V167.903H86.9303V161.946Z" fill="black"/>
<path d="M98.4979 161.946H92.5406V167.903H98.4979V161.946Z" fill="black"/>
<path d="M110.065 161.946H104.108V167.903H110.065V161.946Z" fill="black"/>
<path d="M121.633 161.946H115.676V167.903H121.633V161.946Z" fill="black"/>
<path d="M133.201 161.946H127.243V167.903H133.201V161.946Z" fill="black"/>
<path d="M138.984 161.946H133.027V167.903H138.984V161.946Z" fill="black"/>
<path d="M150.552 161.946H144.595V167.903H150.552V161.946Z" fill="black"/>
<path d="M156.336 161.946H150.378V167.903H156.336V161.946Z" fill="black"/>
<path d="M167.903 161.946H161.946V167.903H167.903V161.946Z" fill="black"/>
<path d="M179.471 161.946H173.514V167.903H179.471V161.946Z" fill="black"/>
<path d="M191.038 161.946H185.081V167.903H191.038V161.946Z" fill="black"/>
<path d="M196.822 161.946H190.865V167.903H196.822V161.946Z" fill="black"/>
<path d="M75.3628 167.73H69.4055V173.687H75.3628V167.73Z" fill="black"/>
<path d="M98.4979 167.73H92.5406V173.687H98.4979V167.73Z" fill="black"/>
<path d="M104.282 167.73H98.3243V173.687H104.282V167.73Z" fill="black"/>
<path d="M110.065 167.73H104.108V173.687H110.065V167.73Z" fill="black"/>
<path d="M115.849 167.73H109.892V173.687H115.849V167.73Z" fill="black"/>
<path d="M121.633 167.73H115.676V173.687H121.633V167.73Z" fill="black"/>
<path d="M138.984 167.73H133.027V173.687H138.984V167.73Z" fill="black"/>
<path d="M144.768 167.73H138.811V173.687H144.768V167.73Z" fill="black"/>
<path d="M150.552 167.73H144.595V173.687H150.552V167.73Z" fill="black"/>
<path d="M156.336 167.73H150.378V173.687H156.336V167.73Z" fill="black"/>
<path d="M179.471 167.73H173.514V173.687H179.471V167.73Z" fill="black"/>
<path d="M185.255 167.73H179.297V173.687H185.255V167.73Z" fill="black"/>
<path d="M191.038 167.73H185.081V173.687H191.038V167.73Z" fill="black"/>
<path d="M196.822 167.73H190.865V173.687H196.822V167.73Z" fill="black"/>
<path d="M202.606 167.73H196.649V173.687H202.606V167.73Z" fill="black"/>
<path d="M63.7952 173.514H57.8379V179.471H63.7952V173.514Z" fill="black"/>
<path d="M86.9303 173.514H80.973V179.471H86.9303V173.514Z" fill="black"/>
<path d="M98.4979 173.514H92.5406V179.471H98.4979V173.514Z" fill="black"/>
<path d="M110.065 173.514H104.108V179.471H110.065V173.514Z" fill="black"/>
<path d="M127.417 173.514H121.459V179.471H127.417V173.514Z" fill="black"/>
<path d="M133.201 173.514H127.243V179.471H133.201V173.514Z" fill="black"/>
<path d="M138.984 173.514H133.027V179.471H138.984V173.514Z" fill="black"/>
<path d="M150.552 173.514H144.595V179.471H150.552V173.514Z" fill="black"/>
<path d="M156.336 173.514H150.378V179.471H156.336V173.514Z" fill="black"/>
<path d="M162.119 173.514H156.162V179.471H162.119V173.514Z" fill="black"/>
<path d="M167.903 173.514H161.946V179.471H167.903V173.514Z" fill="black"/>
<path d="M173.687 173.514H167.73V179.471H173.687V173.514Z" fill="black"/>
<path d="M179.471 173.514H173.514V179.471H179.471V173.514Z" fill="black"/>
<path d="M191.038 173.514H185.081V179.471H191.038V173.514Z" fill="black"/>
<path d="M196.822 173.514H190.865V179.471H196.822V173.514Z" fill="black"/>
<path d="M202.606 173.514H196.649V179.471H202.606V173.514Z" fill="black"/>
<path d="M63.7952 179.297H57.8379V185.255H63.7952V179.297Z" fill="black"/>
<path d="M75.3628 179.297H69.4055V185.255H75.3628V179.297Z" fill="black"/>
<path d="M86.9303 179.297H80.973V185.255H86.9303V179.297Z" fill="black"/>
<path d="M92.7141 179.297H86.7568V185.255H92.7141V179.297Z" fill="black"/>
<path d="M104.282 179.297H98.3243V185.255H104.282V179.297Z" fill="black"/>
<path d="M110.065 179.297H104.108V185.255H110.065V179.297Z" fill="black"/>
<path d="M133.201 179.297H127.243V185.255H133.201V179.297Z" fill="black"/>
<path d="M138.984 179.297H133.027V185.255H138.984V179.297Z" fill="black"/>
<path d="M144.768 179.297H138.811V185.255H144.768V179.297Z" fill="black"/>
<path d="M162.119 179.297H156.162V185.255H162.119V179.297Z" fill="black"/>
<path d="M179.471 179.297H173.514V185.255H179.471V179.297Z" fill="black"/>
<path d="M191.038 179.297H185.081V185.255H191.038V179.297Z" fill="black"/>
<path d="M196.822 179.297H190.865V185.255H196.822V179.297Z" fill="black"/>
<path d="M63.7952 185.081H57.8379V191.038H63.7952V185.081Z" fill="black"/>
<path d="M86.9303 185.081H80.973V191.038H86.9303V185.081Z" fill="black"/>
<path d="M92.7141 185.081H86.7568V191.038H92.7141V185.081Z" fill="black"/>
<path d="M98.4979 185.081H92.5406V191.038H98.4979V185.081Z" fill="black"/>
<path d="M133.201 185.081H127.243V191.038H133.201V185.081Z" fill="black"/>
<path d="M162.119 185.081H156.162V191.038H162.119V185.081Z" fill="black"/>
<path d="M167.903 185.081H161.946V191.038H167.903V185.081Z" fill="black"/>
<path d="M185.255 185.081H179.297V191.038H185.255V185.081Z" fill="black"/>
<path d="M191.038 185.081H185.081V191.038H191.038V185.081Z" fill="black"/>
<path d="M98.4979 190.865H92.5406V196.822H98.4979V190.865Z" fill="black"/>
<path d="M110.065 190.865H104.108V196.822H110.065V190.865Z" fill="black"/>
<path d="M115.849 190.865H109.892V196.822H115.849V190.865Z" fill="black"/>
<path d="M127.417 190.865H121.459V196.822H127.417V190.865Z" fill="black"/>
<path d="M133.201 190.865H127.243V196.822H133.201V190.865Z" fill="black"/>
<path d="M138.984 190.865H133.027V196.822H138.984V190.865Z" fill="black"/>
<path d="M144.768 190.865H138.811V196.822H144.768V190.865Z" fill="black"/>
<path d="M162.119 190.865H156.162V196.822H162.119V190.865Z" fill="black"/>
<path d="M167.903 190.865H161.946V196.822H167.903V190.865Z" fill="black"/>
<path d="M173.687 190.865H167.73V196.822H173.687V190.865Z" fill="black"/>
<path d="M191.038 190.865H185.081V196.822H191.038V190.865Z" fill="black"/>
<path d="M69.579 196.649H63.6217V202.606H69.579V196.649Z" fill="black"/>
<path d="M92.7141 196.649H86.7568V202.606H92.7141V196.649Z" fill="black"/>
<path d="M98.4979 196.649H92.5406V202.606H98.4979V196.649Z" fill="black"/>
<path d="M104.282 196.649H98.3243V202.606H104.282V196.649Z" fill="black"/>
<path d="M115.849 196.649H109.892V202.606H115.849V196.649Z" fill="black"/>
<path d="M121.633 196.649H115.676V202.606H121.633V196.649Z" fill="black"/>
<path d="M138.984 196.649H133.027V202.606H138.984V196.649Z" fill="black"/>
<path d="M144.768 196.649H138.811V202.606H144.768V196.649Z" fill="black"/>
<path d="M150.552 196.649H144.595V202.606H150.552V196.649Z" fill="black"/>
<path d="M156.336 196.649H150.378V202.606H156.336V196.649Z" fill="black"/>
<path d="M167.903 196.649H161.946V202.606H167.903V196.649Z" fill="black"/>
<path d="M185.255 196.649H179.297V202.606H185.255V196.649Z" fill="black"/>
<path d="M191.038 196.649H185.081V202.606H191.038V196.649Z" fill="black"/>
<path d="M196.822 196.649H190.865V202.606H196.822V196.649Z" fill="black"/>
<path d="M52.0541 11.5676H24.292C17.3514 11.5676 11.5676 17.3514 11.5676 24.292V52.0541H52.0541V11.5676ZM17.3514 46.2703V25.4487C17.3514 21.1109 21.1109 17.3514 25.4487 17.3514H46.2703V46.2703H17.3514Z" fill="black"/>
<path d="M202.433 52.0541V24.292C202.433 17.3514 196.649 11.5676 189.708 11.5676L161.946 11.5676V52.0541H202.433ZM167.73 17.3514H188.552C192.889 17.3514 196.649 21.1109 196.649 25.4487V46.2703H167.73V17.3514Z" fill="black"/>
<path d="M11.5676 161.946L11.5676 189.708C11.5676 196.649 17.3514 202.433 24.292 202.433H52.0541V161.946H11.5676ZM46.2703 196.649H25.4487C21.1109 196.649 17.3514 192.889 17.3514 188.552V167.73H46.2703V196.649Z" fill="black"/>
<path d="M31.8109 40.4866C36.6024 40.4866 40.4866 36.6024 40.4866 31.8109C40.4866 27.0195 36.6024 23.1353 31.8109 23.1353C27.0195 23.1353 23.1353 27.0195 23.1353 31.8109C23.1353 36.6024 27.0195 40.4866 31.8109 40.4866Z" fill="black"/>
<path d="M182.189 40.4866C186.981 40.4866 190.865 36.6024 190.865 31.8109C190.865 27.0195 186.981 23.1353 182.189 23.1353C177.398 23.1353 173.514 27.0195 173.514 31.8109C173.514 36.6024 177.398 40.4866 182.189 40.4866Z" fill="black"/>
<path d="M31.8109 190.865C36.6024 190.865 40.4866 186.981 40.4866 182.189C40.4866 177.398 36.6024 173.514 31.8109 173.514C27.0195 173.514 23.1353 177.398 23.1353 182.189C23.1353 186.981 27.0195 190.865 31.8109 190.865Z" fill="black"/>
</g>
<defs>
<clipPath id="clip0_27_682">
<rect width="214" height="214" fill="white"/>
</clipPath>
</defs>
</svg>
