<svg width="215" height="215" viewBox="0 0 215 215" fill="none" xmlns="http://www.w3.org/2000/svg">
<g clip-path="url(#clip0_27_138)">
<path d="M215 0H0V215H215V0Z" fill="white"/>
<path d="M94.858 17.2H86V26.058H94.858V17.2Z" fill="black"/>
<path d="M103.458 17.2H94.6V26.058H103.458V17.2Z" fill="black"/>
<path d="M112.058 17.2H103.2V26.058H112.058V17.2Z" fill="black"/>
<path d="M94.858 25.8H86V34.658H94.858V25.8Z" fill="black"/>
<path d="M112.058 25.8H103.2V34.658H112.058V25.8Z" fill="black"/>
<path d="M94.858 34.3999H86V43.2579H94.858V34.3999Z" fill="black"/>
<path d="M112.058 34.3999H103.2V43.2579H112.058V34.3999Z" fill="black"/>
<path d="M120.658 43H111.8V51.858H120.658V43Z" fill="black"/>
<path d="M112.058 51.5999H103.2V60.4579H112.058V51.5999Z" fill="black"/>
<path d="M120.658 51.5999H111.8V60.4579H120.658V51.5999Z" fill="black"/>
<path d="M129.258 51.5999H120.4V60.4579H129.258V51.5999Z" fill="black"/>
<path d="M94.858 60.2H86V69.058H94.858V60.2Z" fill="black"/>
<path d="M103.458 60.2H94.6V69.058H103.458V60.2Z" fill="black"/>
<path d="M120.658 60.2H111.8V69.058H120.658V60.2Z" fill="black"/>
<path d="M129.258 60.2H120.4V69.058H129.258V60.2Z" fill="black"/>
<path d="M94.858 68.8H86V77.658H94.858V68.8Z" fill="black"/>
<path d="M112.058 68.8H103.2V77.658H112.058V68.8Z" fill="black"/>
<path d="M129.258 68.8H120.4V77.658H129.258V68.8Z" fill="black"/>
<path d="M94.858 77.3999H86V86.2579H94.858V77.3999Z" fill="black"/>
<path d="M112.058 77.3999H103.2V86.2579H112.058V77.3999Z" fill="black"/>
<path d="M120.658 77.3999H111.8V86.2579H120.658V77.3999Z" fill="black"/>
<path d="M43.258 86H34.4V94.858H43.258V86Z" fill="black"/>
<path d="M51.858 86H43V94.858H51.858V86Z" fill="black"/>
<path d="M60.458 86H51.6V94.858H60.458V86Z" fill="black"/>
<path d="M77.658 86H68.8V94.858H77.658V86Z" fill="black"/>
<path d="M94.858 86H86V94.858H94.858V86Z" fill="black"/>
<path d="M129.258 86H120.4V94.858H129.258V86Z" fill="black"/>
<path d="M137.858 86H129V94.858H137.858V86Z" fill="black"/>
<path d="M146.458 86H137.6V94.858H146.458V86Z" fill="black"/>
<path d="M155.058 86H146.2V94.858H155.058V86Z" fill="black"/>
<path d="M180.858 86H172V94.858H180.858V86Z" fill="black"/>
<path d="M189.458 86H180.6V94.858H189.458V86Z" fill="black"/>
<path d="M198.058 86H189.2V94.858H198.058V86Z" fill="black"/>
<path d="M34.658 94.5999H25.8V103.458H34.658V94.5999Z" fill="black"/>
<path d="M94.858 94.5999H86V103.458H94.858V94.5999Z" fill="black"/>
<path d="M129.258 94.5999H120.4V103.458H129.258V94.5999Z" fill="black"/>
<path d="M137.858 94.5999H129V103.458H137.858V94.5999Z" fill="black"/>
<path d="M146.458 94.5999H137.6V103.458H146.458V94.5999Z" fill="black"/>
<path d="M155.058 94.5999H146.2V103.458H155.058V94.5999Z" fill="black"/>
<path d="M189.458 94.5999H180.6V103.458H189.458V94.5999Z" fill="black"/>
<path d="M198.058 94.5999H189.2V103.458H198.058V94.5999Z" fill="black"/>
<path d="M34.658 103.2H25.8V112.058H34.658V103.2Z" fill="black"/>
<path d="M43.258 103.2H34.4V112.058H43.258V103.2Z" fill="black"/>
<path d="M51.858 103.2H43V112.058H51.858V103.2Z" fill="black"/>
<path d="M69.058 103.2H60.2V112.058H69.058V103.2Z" fill="black"/>
<path d="M77.658 103.2H68.8V112.058H77.658V103.2Z" fill="black"/>
<path d="M86.258 103.2H77.4V112.058H86.258V103.2Z" fill="black"/>
<path d="M112.058 103.2H103.2V112.058H112.058V103.2Z" fill="black"/>
<path d="M120.658 103.2H111.8V112.058H120.658V103.2Z" fill="black"/>
<path d="M146.458 103.2H137.6V112.058H146.458V103.2Z" fill="black"/>
<path d="M155.058 103.2H146.2V112.058H155.058V103.2Z" fill="black"/>
<path d="M172.258 103.2H163.4V112.058H172.258V103.2Z" fill="black"/>
<path d="M180.858 103.2H172V112.058H180.858V103.2Z" fill="black"/>
<path d="M198.058 103.2H189.2V112.058H198.058V103.2Z" fill="black"/>
<path d="M26.058 111.8H17.2V120.658H26.058V111.8Z" fill="black"/>
<path d="M34.658 111.8H25.8V120.658H34.658V111.8Z" fill="black"/>
<path d="M43.258 111.8H34.4V120.658H43.258V111.8Z" fill="black"/>
<path d="M60.458 111.8H51.6V120.658H60.458V111.8Z" fill="black"/>
<path d="M86.258 111.8H77.4V120.658H86.258V111.8Z" fill="black"/>
<path d="M94.858 111.8H86V120.658H94.858V111.8Z" fill="black"/>
<path d="M112.058 111.8H103.2V120.658H112.058V111.8Z" fill="black"/>
<path d="M163.658 111.8H154.8V120.658H163.658V111.8Z" fill="black"/>
<path d="M172.258 111.8H163.4V120.658H172.258V111.8Z" fill="black"/>
<path d="M198.058 111.8H189.2V120.658H198.058V111.8Z" fill="black"/>
<path d="M26.058 120.4H17.2V129.258H26.058V120.4Z" fill="black"/>
<path d="M34.658 120.4H25.8V129.258H34.658V120.4Z" fill="black"/>
<path d="M60.458 120.4H51.6V129.258H60.458V120.4Z" fill="black"/>
<path d="M69.058 120.4H60.2V129.258H69.058V120.4Z" fill="black"/>
<path d="M77.658 120.4H68.8V129.258H77.658V120.4Z" fill="black"/>
<path d="M86.258 120.4H77.4V129.258H86.258V120.4Z" fill="black"/>
<path d="M103.458 120.4H94.6V129.258H103.458V120.4Z" fill="black"/>
<path d="M112.058 120.4H103.2V129.258H112.058V120.4Z" fill="black"/>
<path d="M120.658 120.4H111.8V129.258H120.658V120.4Z" fill="black"/>
<path d="M129.258 120.4H120.4V129.258H129.258V120.4Z" fill="black"/>
<path d="M172.258 120.4H163.4V129.258H172.258V120.4Z" fill="black"/>
<path d="M198.058 120.4H189.2V129.258H198.058V120.4Z" fill="black"/>
<path d="M94.858 129H86V137.858H94.858V129Z" fill="black"/>
<path d="M120.658 129H111.8V137.858H120.658V129Z" fill="black"/>
<path d="M129.258 129H120.4V137.858H129.258V129Z" fill="black"/>
<path d="M155.058 129H146.2V137.858H155.058V129Z" fill="black"/>
<path d="M189.458 129H180.6V137.858H189.458V129Z" fill="black"/>
<path d="M103.458 137.6H94.6V146.458H103.458V137.6Z" fill="black"/>
<path d="M146.458 137.6H137.6V146.458H146.458V137.6Z" fill="black"/>
<path d="M163.658 137.6H154.8V146.458H163.658V137.6Z" fill="black"/>
<path d="M180.858 137.6H172V146.458H180.858V137.6Z" fill="black"/>
<path d="M103.458 146.2H94.6V155.058H103.458V146.2Z" fill="black"/>
<path d="M120.658 146.2H111.8V155.058H120.658V146.2Z" fill="black"/>
<path d="M155.058 146.2H146.2V155.058H155.058V146.2Z" fill="black"/>
<path d="M163.658 146.2H154.8V155.058H163.658V146.2Z" fill="black"/>
<path d="M180.858 146.2H172V155.058H180.858V146.2Z" fill="black"/>
<path d="M94.858 154.8H86V163.658H94.858V154.8Z" fill="black"/>
<path d="M112.058 154.8H103.2V163.658H112.058V154.8Z" fill="black"/>
<path d="M163.658 154.8H154.8V163.658H163.658V154.8Z" fill="black"/>
<path d="M172.258 154.8H163.4V163.658H172.258V154.8Z" fill="black"/>
<path d="M180.858 154.8H172V163.658H180.858V154.8Z" fill="black"/>
<path d="M189.458 154.8H180.6V163.658H189.458V154.8Z" fill="black"/>
<path d="M94.858 163.4H86V172.258H94.858V163.4Z" fill="black"/>
<path d="M103.458 163.4H94.6V172.258H103.458V163.4Z" fill="black"/>
<path d="M112.058 163.4H103.2V172.258H112.058V163.4Z" fill="black"/>
<path d="M120.658 163.4H111.8V172.258H120.658V163.4Z" fill="black"/>
<path d="M129.258 163.4H120.4V172.258H129.258V163.4Z" fill="black"/>
<path d="M137.858 163.4H129V172.258H137.858V163.4Z" fill="black"/>
<path d="M94.858 172H86V180.858H94.858V172Z" fill="black"/>
<path d="M103.458 172H94.6V180.858H103.458V172Z" fill="black"/>
<path d="M120.658 172H111.8V180.858H120.658V172Z" fill="black"/>
<path d="M180.858 172H172V180.858H180.858V172Z" fill="black"/>
<path d="M103.458 180.6H94.6V189.458H103.458V180.6Z" fill="black"/>
<path d="M137.858 180.6H129V189.458H137.858V180.6Z" fill="black"/>
<path d="M146.458 180.6H137.6V189.458H146.458V180.6Z" fill="black"/>
<path d="M155.058 180.6H146.2V189.458H155.058V180.6Z" fill="black"/>
<path d="M172.258 180.6H163.4V189.458H172.258V180.6Z" fill="black"/>
<path d="M180.858 180.6H172V189.458H180.858V180.6Z" fill="black"/>
<path d="M189.458 180.6H180.6V189.458H189.458V180.6Z" fill="black"/>
<path d="M112.058 189.2H103.2V198.058H112.058V189.2Z" fill="black"/>
<path d="M129.258 189.2H120.4V198.058H129.258V189.2Z" fill="black"/>
<path d="M155.058 189.2H146.2V198.058H155.058V189.2Z" fill="black"/>
<path d="M163.658 189.2H154.8V198.058H163.658V189.2Z" fill="black"/>
<path d="M172.258 189.2H163.4V198.058H172.258V189.2Z" fill="black"/>
<path d="M180.858 189.2H172V198.058H180.858V189.2Z" fill="black"/>
<path d="M77.4 17.2H36.12C25.8 17.2 17.2 25.8 17.2 36.12V77.4H77.4V17.2ZM25.8 68.8V37.84C25.8 31.39 31.39 25.8 37.84 25.8H68.8V68.8H25.8Z" fill="black"/>
<path d="M197.8 77.4V36.12C197.8 25.8 189.2 17.2 178.88 17.2L137.6 17.2V77.4H197.8ZM146.2 25.8L177.16 25.8C183.61 25.8 189.2 31.39 189.2 37.84V68.8H146.2V25.8Z" fill="black"/>
<path d="M17.2 137.6L17.2 178.88C17.2 189.2 25.8 197.8 36.12 197.8H77.4V137.6H17.2ZM68.8 189.2H37.84C31.39 189.2 25.8 183.61 25.8 177.16L25.8 146.2H68.8V189.2Z" fill="black"/>
<path d="M47.3 60.1999C54.4245 60.1999 60.2 54.4244 60.2 47.2999C60.2 40.1754 54.4245 34.3999 47.3 34.3999C40.1756 34.3999 34.4 40.1754 34.4 47.2999C34.4 54.4244 40.1756 60.1999 47.3 60.1999Z" fill="black"/>
<path d="M167.7 60.1999C174.824 60.1999 180.6 54.4244 180.6 47.2999C180.6 40.1754 174.824 34.3999 167.7 34.3999C160.576 34.3999 154.8 40.1754 154.8 47.2999C154.8 54.4244 160.576 60.1999 167.7 60.1999Z" fill="black"/>
<path d="M47.3 180.6C54.4245 180.6 60.2 174.825 60.2 167.7C60.2 160.576 54.4245 154.8 47.3 154.8C40.1756 154.8 34.4 160.576 34.4 167.7C34.4 174.825 40.1756 180.6 47.3 180.6Z" fill="black"/>
</g>
<defs>
<clipPath id="clip0_27_138">
<rect width="215" height="215" fill="white"/>
</clipPath>
</defs>
</svg>
