<svg width="1440" height="960" viewBox="0 0 1440 960" fill="none" xmlns="http://www.w3.org/2000/svg">
<rect width="1440" height="960" fill="#0E0F1C"/>
<path d="M115.727 344.133V354.141H114.93C114.492 351.734 113.469 349.609 111.859 347.766C110.266 345.922 107.789 345 104.43 345H82.8672V344.133C84.8359 344.07 86.0938 343.758 86.6406 343.195C87.1875 342.633 87.4609 341.305 87.4609 339.211V319.008C87.4609 316.914 87.1875 315.586 86.6406 315.023C86.0938 314.461 84.8359 314.148 82.8672 314.086V313.219H96.5547V314.086C94.5859 314.148 93.3281 314.461 92.7812 315.023C92.2344 315.586 91.9609 316.914 91.9609 319.008V340.195C91.9609 341.68 92.0469 342.562 92.2188 342.844C92.3906 343.125 93.3359 343.266 95.0547 343.266H103.234C105.234 343.266 106.312 343.117 106.469 342.82C106.625 342.508 106.703 341.484 106.703 339.75V319.008C106.703 316.914 106.43 315.586 105.883 315.023C105.336 314.461 104.062 314.148 102.062 314.086V313.219H115.797V314.086C113.828 314.148 112.57 314.461 112.023 315.023C111.477 315.586 111.203 316.914 111.203 319.008V339.281C111.203 341.453 111.453 342.805 111.953 343.336C112.469 343.867 113.727 344.133 115.727 344.133ZM121.797 331.617C121.781 334.805 122.555 337.305 124.117 339.117C125.68 340.93 127.516 341.836 129.625 341.836C131.031 341.836 132.25 341.453 133.281 340.688C134.328 339.906 135.203 338.578 135.906 336.703L136.633 337.172C136.305 339.312 135.352 341.266 133.773 343.031C132.195 344.781 130.219 345.656 127.844 345.656C125.266 345.656 123.055 344.656 121.211 342.656C119.383 340.641 118.469 337.938 118.469 334.547C118.469 330.875 119.406 328.016 121.281 325.969C123.172 323.906 125.539 322.875 128.383 322.875C130.789 322.875 132.766 323.672 134.312 325.266C135.859 326.844 136.633 328.961 136.633 331.617H121.797ZM121.797 330.258H131.734C131.656 328.883 131.492 327.914 131.242 327.352C130.852 326.477 130.266 325.789 129.484 325.289C128.719 324.789 127.914 324.539 127.07 324.539C125.773 324.539 124.609 325.047 123.578 326.062C122.562 327.062 121.969 328.461 121.797 330.258ZM141.719 323.531H160.914V324.422C159.852 324.422 159.141 324.531 158.781 324.75C158.438 324.953 158.164 325.211 157.961 325.523C157.758 325.836 157.656 326.852 157.656 328.57V339.961C157.656 341.617 157.742 342.609 157.914 342.938C158.086 343.25 158.352 343.531 158.711 343.781C159.086 344.016 159.82 344.133 160.914 344.133V345H149.805V344.133C151.008 344.133 151.836 344.07 152.289 343.945C152.758 343.82 153.125 343.523 153.391 343.055C153.656 342.57 153.789 341.539 153.789 339.961V325.055H146.641V334.102C146.641 337.523 146.484 339.93 146.172 341.32C145.875 342.695 145.273 343.719 144.367 344.391C143.477 345.047 142.453 345.375 141.297 345.375C139.297 345.375 138.297 344.547 138.297 342.891C138.297 342.328 138.453 341.867 138.766 341.508C139.094 341.148 139.516 340.969 140.031 340.969C140.578 340.969 141.086 341.195 141.555 341.648C142.164 342.242 142.625 342.539 142.938 342.539C143.641 342.539 144.148 341.953 144.461 340.781C144.789 339.594 144.953 337.523 144.953 334.57V329.836C144.953 327.398 144.773 325.914 144.414 325.383C144.07 324.852 143.172 324.531 141.719 324.422V323.531ZM170.172 338.391L179.453 327.656C179.422 326.453 179.195 325.617 178.773 325.148C178.352 324.68 177.625 324.438 176.594 324.422V323.531H186.578V324.422C185.531 324.422 184.828 324.531 184.469 324.75C184.109 324.953 183.828 325.211 183.625 325.523C183.422 325.836 183.32 326.852 183.32 328.57V339.961C183.32 341.617 183.406 342.609 183.578 342.938C183.75 343.25 184.016 343.531 184.375 343.781C184.75 344.016 185.484 344.133 186.578 344.133V345H176.195V344.133C177.492 344.133 178.359 343.898 178.797 343.43C179.234 342.945 179.453 341.789 179.453 339.961V329.859L170.172 340.617C170.203 341.945 170.391 342.859 170.734 343.359C171.078 343.859 171.82 344.117 172.961 344.133V345H163.047V344.133C164.438 344.133 165.328 343.883 165.719 343.383C166.109 342.867 166.305 341.727 166.305 339.961V328.57C166.305 326.898 166.219 325.914 166.047 325.617C165.875 325.305 165.609 325.031 165.25 324.797C164.891 324.547 164.156 324.422 163.047 324.422V323.531H173.43V324.422C172.383 324.422 171.68 324.531 171.32 324.75C170.961 324.953 170.68 325.211 170.477 325.523C170.273 325.836 170.172 326.852 170.172 328.57V338.391ZM194.43 322.875C195.148 322.875 195.758 323.133 196.258 323.648C196.773 324.148 197.031 324.758 197.031 325.477C197.031 326.195 196.773 326.812 196.258 327.328C195.758 327.828 195.148 328.078 194.43 328.078C193.711 328.078 193.094 327.828 192.578 327.328C192.078 326.812 191.828 326.195 191.828 325.477C191.828 324.758 192.078 324.148 192.578 323.648C193.094 323.133 193.711 322.875 194.43 322.875ZM194.383 340.43C195.117 340.43 195.734 340.688 196.234 341.203C196.75 341.719 197.008 342.336 197.008 343.055C197.008 343.773 196.75 344.391 196.234 344.906C195.719 345.406 195.102 345.656 194.383 345.656C193.664 345.656 193.047 345.406 192.531 344.906C192.031 344.391 191.781 343.773 191.781 343.055C191.781 342.336 192.031 341.719 192.531 341.203C193.047 340.688 193.664 340.43 194.383 340.43Z" fill="white"/>
<path d="M118.094 406.25C119.719 406.25 121.102 406.828 122.242 407.984C123.398 409.125 123.977 410.508 123.977 412.133C123.977 413.758 123.398 415.148 122.242 416.305C121.102 417.445 119.719 418.016 118.094 418.016C116.469 418.016 115.078 417.445 113.922 416.305C112.781 415.148 112.211 413.758 112.211 412.133C112.211 410.508 112.781 409.125 113.922 407.984C115.062 406.828 116.453 406.25 118.094 406.25ZM182.898 395.492L183.625 406.297H182.898C181.93 403.062 180.547 400.734 178.75 399.312C176.953 397.891 174.797 397.18 172.281 397.18C170.172 397.18 168.266 397.719 166.562 398.797C164.859 399.859 163.516 401.562 162.531 403.906C161.562 406.25 161.078 409.164 161.078 412.648C161.078 415.523 161.539 418.016 162.461 420.125C163.383 422.234 164.766 423.852 166.609 424.977C168.469 426.102 170.586 426.664 172.961 426.664C175.023 426.664 176.844 426.227 178.422 425.352C180 424.461 181.734 422.703 183.625 420.078L184.352 420.547C182.758 423.375 180.898 425.445 178.773 426.758C176.648 428.07 174.125 428.727 171.203 428.727C165.938 428.727 161.859 426.773 158.969 422.867C156.812 419.961 155.734 416.539 155.734 412.602C155.734 409.43 156.445 406.516 157.867 403.859C159.289 401.203 161.242 399.148 163.727 397.695C166.227 396.227 168.953 395.492 171.906 395.492C174.203 395.492 176.469 396.055 178.703 397.18C179.359 397.523 179.828 397.695 180.109 397.695C180.531 397.695 180.898 397.547 181.211 397.25C181.617 396.828 181.906 396.242 182.078 395.492H182.898ZM186.531 406.531H205.094L206.031 412.344H204.977C204.789 411.172 204.477 410.266 204.039 409.625C203.602 408.984 203.102 408.562 202.539 408.359C201.977 408.156 201.016 408.055 199.656 408.055H197.781V422.961C197.781 424.555 197.875 425.57 198.062 426.008C198.266 426.43 198.586 426.711 199.023 426.852C199.461 426.992 200.461 427.086 202.023 427.133V428H190.352V427.133C191.852 427.102 192.812 426.859 193.234 426.406C193.672 425.953 193.891 424.805 193.891 422.961V408.055H191.969C190.625 408.055 189.711 408.141 189.227 408.312C188.742 408.469 188.273 408.859 187.82 409.484C187.383 410.094 187.008 411.047 186.695 412.344H185.641L186.531 406.531ZM206.922 408.664L213.531 405.992H214.422V411.008C215.531 409.117 216.641 407.797 217.75 407.047C218.875 406.281 220.055 405.898 221.289 405.898C223.445 405.898 225.242 406.742 226.68 408.43C228.445 410.492 229.328 413.18 229.328 416.492C229.328 420.195 228.266 423.258 226.141 425.68C224.391 427.664 222.188 428.656 219.531 428.656C218.375 428.656 217.375 428.492 216.531 428.164C215.906 427.93 215.203 427.461 214.422 426.758V433.297C214.422 434.766 214.508 435.695 214.68 436.086C214.867 436.492 215.18 436.812 215.617 437.047C216.07 437.281 216.883 437.398 218.055 437.398V438.266H206.805V437.398H207.391C208.25 437.414 208.984 437.25 209.594 436.906C209.891 436.734 210.117 436.453 210.273 436.062C210.445 435.688 210.531 434.719 210.531 433.156V412.859C210.531 411.469 210.469 410.586 210.344 410.211C210.219 409.836 210.016 409.555 209.734 409.367C209.469 409.18 209.102 409.086 208.633 409.086C208.258 409.086 207.781 409.195 207.203 409.414L206.922 408.664ZM214.422 412.391V420.406C214.422 422.141 214.492 423.281 214.633 423.828C214.852 424.734 215.383 425.531 216.227 426.219C217.086 426.906 218.164 427.25 219.461 427.25C221.023 427.25 222.289 426.641 223.258 425.422C224.523 423.828 225.156 421.586 225.156 418.695C225.156 415.414 224.438 412.891 223 411.125C222 409.906 220.812 409.297 219.438 409.297C218.688 409.297 217.945 409.484 217.211 409.859C216.648 410.141 215.719 410.984 214.422 412.391ZM230.594 406.531H240.602V407.398H240.109C239.406 407.398 238.875 407.555 238.516 407.867C238.172 408.164 238 408.539 238 408.992C238 409.602 238.258 410.445 238.773 411.523L244 422.352L248.805 410.492C249.07 409.852 249.203 409.219 249.203 408.594C249.203 408.312 249.148 408.102 249.039 407.961C248.914 407.789 248.719 407.656 248.453 407.562C248.188 407.453 247.719 407.398 247.047 407.398V406.531H254.031V407.398C253.453 407.461 253.008 407.586 252.695 407.773C252.383 407.961 252.039 408.312 251.664 408.828C251.523 409.047 251.258 409.648 250.867 410.633L242.125 432.055C241.281 434.133 240.172 435.703 238.797 436.766C237.438 437.828 236.125 438.359 234.859 438.359C233.938 438.359 233.18 438.094 232.586 437.562C231.992 437.031 231.695 436.422 231.695 435.734C231.695 435.078 231.906 434.547 232.328 434.141C232.766 433.75 233.359 433.555 234.109 433.555C234.625 433.555 235.328 433.727 236.219 434.07C236.844 434.305 237.234 434.422 237.391 434.422C237.859 434.422 238.367 434.18 238.914 433.695C239.477 433.211 240.039 432.273 240.602 430.883L242.125 427.156L234.414 410.961C234.18 410.477 233.805 409.875 233.289 409.156C232.898 408.609 232.578 408.242 232.328 408.055C231.969 407.805 231.391 407.586 230.594 407.398V406.531ZM277.352 428H271.023C269.055 425.141 267.273 422.211 265.68 419.211C265.305 418.523 264.961 418.016 264.648 417.688C264.352 417.344 263.938 417.172 263.406 417.172C263.219 417.172 262.922 417.188 262.516 417.219V422.961C262.516 424.508 262.602 425.5 262.773 425.938C262.961 426.359 263.289 426.664 263.758 426.852C264.227 427.039 265.016 427.133 266.125 427.133V428H255.391V427.133C256.781 427.133 257.672 426.883 258.062 426.383C258.453 425.867 258.648 424.727 258.648 422.961V411.57C258.648 409.898 258.562 408.914 258.391 408.617C258.219 408.305 257.953 408.031 257.594 407.797C257.234 407.547 256.5 407.422 255.391 407.422V406.531H266.125V407.422C264.828 407.422 264.023 407.516 263.711 407.703C263.414 407.891 263.141 408.125 262.891 408.406C262.641 408.672 262.516 409.727 262.516 411.57V415.789C262.875 415.82 263.117 415.836 263.242 415.836C264.195 415.836 265.086 415.57 265.914 415.039C266.758 414.492 267.508 413.344 268.164 411.594C268.773 409.938 269.273 408.82 269.664 408.242C270.07 407.664 270.625 407.195 271.328 406.836C272.047 406.461 272.797 406.273 273.578 406.273C274.422 406.273 275.094 406.477 275.594 406.883C276.094 407.289 276.344 407.82 276.344 408.477C276.344 409.023 276.164 409.492 275.805 409.883C275.445 410.258 274.945 410.445 274.305 410.445C273.961 410.445 273.531 410.352 273.016 410.164C272.359 409.93 271.859 409.812 271.516 409.812C270.797 409.812 270.203 410.43 269.734 411.664C269.203 413.086 268.812 414.008 268.562 414.43C268.312 414.836 267.836 415.383 267.133 416.07C267.617 416.211 268.141 416.57 268.703 417.148C269.281 417.727 270.344 419.375 271.891 422.094C273.125 424.266 274.047 425.641 274.656 426.219C275.281 426.797 276.18 427.102 277.352 427.133V428ZM278.172 406.531H296.734L297.672 412.344H296.617C296.43 411.172 296.117 410.266 295.68 409.625C295.242 408.984 294.742 408.562 294.18 408.359C293.617 408.156 292.656 408.055 291.297 408.055H289.422V422.961C289.422 424.555 289.516 425.57 289.703 426.008C289.906 426.43 290.227 426.711 290.664 426.852C291.102 426.992 292.102 427.086 293.664 427.133V428H281.992V427.133C283.492 427.102 284.453 426.859 284.875 426.406C285.312 425.953 285.531 424.805 285.531 422.961V408.055H283.609C282.266 408.055 281.352 408.141 280.867 408.312C280.383 408.469 279.914 408.859 279.461 409.484C279.023 410.094 278.648 411.047 278.336 412.344H277.281L278.172 406.531ZM297.625 406.531H307.633V407.398H307.141C306.438 407.398 305.906 407.555 305.547 407.867C305.203 408.164 305.031 408.539 305.031 408.992C305.031 409.602 305.289 410.445 305.805 411.523L311.031 422.352L315.836 410.492C316.102 409.852 316.234 409.219 316.234 408.594C316.234 408.312 316.18 408.102 316.07 407.961C315.945 407.789 315.75 407.656 315.484 407.562C315.219 407.453 314.75 407.398 314.078 407.398V406.531H321.062V407.398C320.484 407.461 320.039 407.586 319.727 407.773C319.414 407.961 319.07 408.312 318.695 408.828C318.555 409.047 318.289 409.648 317.898 410.633L309.156 432.055C308.312 434.133 307.203 435.703 305.828 436.766C304.469 437.828 303.156 438.359 301.891 438.359C300.969 438.359 300.211 438.094 299.617 437.562C299.023 437.031 298.727 436.422 298.727 435.734C298.727 435.078 298.938 434.547 299.359 434.141C299.797 433.75 300.391 433.555 301.141 433.555C301.656 433.555 302.359 433.727 303.25 434.07C303.875 434.305 304.266 434.422 304.422 434.422C304.891 434.422 305.398 434.18 305.945 433.695C306.508 433.211 307.07 432.273 307.633 430.883L309.156 427.156L301.445 410.961C301.211 410.477 300.836 409.875 300.32 409.156C299.93 408.609 299.609 408.242 299.359 408.055C299 407.805 298.422 407.586 297.625 407.398V406.531ZM321.297 408.664L327.906 405.992H328.797V411.008C329.906 409.117 331.016 407.797 332.125 407.047C333.25 406.281 334.43 405.898 335.664 405.898C337.82 405.898 339.617 406.742 341.055 408.43C342.82 410.492 343.703 413.18 343.703 416.492C343.703 420.195 342.641 423.258 340.516 425.68C338.766 427.664 336.562 428.656 333.906 428.656C332.75 428.656 331.75 428.492 330.906 428.164C330.281 427.93 329.578 427.461 328.797 426.758V433.297C328.797 434.766 328.883 435.695 329.055 436.086C329.242 436.492 329.555 436.812 329.992 437.047C330.445 437.281 331.258 437.398 332.43 437.398V438.266H321.18V437.398H321.766C322.625 437.414 323.359 437.25 323.969 436.906C324.266 436.734 324.492 436.453 324.648 436.062C324.82 435.688 324.906 434.719 324.906 433.156V412.859C324.906 411.469 324.844 410.586 324.719 410.211C324.594 409.836 324.391 409.555 324.109 409.367C323.844 409.18 323.477 409.086 323.008 409.086C322.633 409.086 322.156 409.195 321.578 409.414L321.297 408.664ZM328.797 412.391V420.406C328.797 422.141 328.867 423.281 329.008 423.828C329.227 424.734 329.758 425.531 330.602 426.219C331.461 426.906 332.539 427.25 333.836 427.25C335.398 427.25 336.664 426.641 337.633 425.422C338.898 423.828 339.531 421.586 339.531 418.695C339.531 415.414 338.812 412.891 337.375 411.125C336.375 409.906 335.188 409.297 333.812 409.297C333.062 409.297 332.32 409.484 331.586 409.859C331.023 410.141 330.094 410.984 328.797 412.391ZM353.547 421.391L362.828 410.656C362.797 409.453 362.57 408.617 362.148 408.148C361.727 407.68 361 407.438 359.969 407.422V406.531H369.953V407.422C368.906 407.422 368.203 407.531 367.844 407.75C367.484 407.953 367.203 408.211 367 408.523C366.797 408.836 366.695 409.852 366.695 411.57V422.961C366.695 424.617 366.781 425.609 366.953 425.938C367.125 426.25 367.391 426.531 367.75 426.781C368.125 427.016 368.859 427.133 369.953 427.133V428H359.57V427.133C360.867 427.133 361.734 426.898 362.172 426.43C362.609 425.945 362.828 424.789 362.828 422.961V412.859L353.547 423.617C353.578 424.945 353.766 425.859 354.109 426.359C354.453 426.859 355.195 427.117 356.336 427.133V428H346.422V427.133C347.812 427.133 348.703 426.883 349.094 426.383C349.484 425.867 349.68 424.727 349.68 422.961V411.57C349.68 409.898 349.594 408.914 349.422 408.617C349.25 408.305 348.984 408.031 348.625 407.797C348.266 407.547 347.531 407.422 346.422 407.422V406.531H356.805V407.422C355.758 407.422 355.055 407.531 354.695 407.75C354.336 407.953 354.055 408.211 353.852 408.523C353.648 408.836 353.547 409.852 353.547 411.57V421.391ZM373 413.258V406.531H373.984C374.266 406.781 374.578 406.906 374.922 406.906C375.188 406.906 375.766 406.781 376.656 406.531C378.141 406.109 379.352 405.898 380.289 405.898C382.352 405.898 384.07 406.375 385.445 407.328C386.836 408.281 387.531 409.547 387.531 411.125C387.531 413.547 385.695 415.305 382.023 416.398C386.305 417.289 388.445 419.297 388.445 422.422C388.445 424.062 387.758 425.516 386.383 426.781C385.008 428.031 383.008 428.656 380.383 428.656C378.664 428.656 377.148 428.352 375.836 427.742C374.539 427.117 373.125 426.07 371.594 424.602L372.203 423.992C374.766 425.977 377.195 426.969 379.492 426.969C380.805 426.969 381.883 426.523 382.727 425.633C383.57 424.742 383.992 423.586 383.992 422.164C383.992 419.055 381.984 417.406 377.969 417.219V415.859C379.859 415.859 381.227 415.359 382.07 414.359C382.93 413.344 383.359 412.258 383.359 411.102C383.359 410.086 382.992 409.195 382.258 408.43C381.539 407.664 380.578 407.281 379.375 407.281C376.594 407.281 374.75 409.273 373.844 413.258H373ZM403.68 424.906C401.477 426.609 400.094 427.594 399.531 427.859C398.688 428.25 397.789 428.445 396.836 428.445C395.352 428.445 394.125 427.938 393.156 426.922C392.203 425.906 391.727 424.57 391.727 422.914C391.727 421.867 391.961 420.961 392.43 420.195C393.07 419.133 394.18 418.133 395.758 417.195C397.352 416.258 399.992 415.117 403.68 413.773V412.93C403.68 410.789 403.336 409.32 402.648 408.523C401.977 407.727 400.992 407.328 399.695 407.328C398.711 407.328 397.93 407.594 397.352 408.125C396.758 408.656 396.461 409.266 396.461 409.953L396.508 411.312C396.508 412.031 396.32 412.586 395.945 412.977C395.586 413.367 395.109 413.562 394.516 413.562C393.938 413.562 393.461 413.359 393.086 412.953C392.727 412.547 392.547 411.992 392.547 411.289C392.547 409.945 393.234 408.711 394.609 407.586C395.984 406.461 397.914 405.898 400.398 405.898C402.305 405.898 403.867 406.219 405.086 406.859C406.008 407.344 406.688 408.102 407.125 409.133C407.406 409.805 407.547 411.18 407.547 413.258V420.547C407.547 422.594 407.586 423.852 407.664 424.32C407.742 424.773 407.867 425.078 408.039 425.234C408.227 425.391 408.438 425.469 408.672 425.469C408.922 425.469 409.141 425.414 409.328 425.305C409.656 425.102 410.289 424.531 411.227 423.594V424.906C409.477 427.25 407.805 428.422 406.211 428.422C405.445 428.422 404.836 428.156 404.383 427.625C403.93 427.094 403.695 426.188 403.68 424.906ZM403.68 423.383V415.203C401.32 416.141 399.797 416.805 399.109 417.195C397.875 417.883 396.992 418.602 396.461 419.352C395.93 420.102 395.664 420.922 395.664 421.812C395.664 422.938 396 423.875 396.672 424.625C397.344 425.359 398.117 425.727 398.992 425.727C400.18 425.727 401.742 424.945 403.68 423.383ZM435.953 427.133V433.953H435.086C435.039 432.125 434.438 430.672 433.281 429.594C432.141 428.531 430.062 428 427.047 428H412.422V427.133C413.812 427.133 414.703 426.883 415.094 426.383C415.484 425.867 415.68 424.727 415.68 422.961V411.57C415.68 409.898 415.594 408.914 415.422 408.617C415.25 408.305 414.984 408.031 414.625 407.797C414.266 407.547 413.531 407.422 412.422 407.422V406.531H422.805V407.422C421.758 407.422 421.055 407.531 420.695 407.75C420.336 407.953 420.055 408.211 419.852 408.523C419.648 408.836 419.547 409.852 419.547 411.57V423.688C419.547 425.047 419.664 425.852 419.898 426.102C420.148 426.352 420.93 426.477 422.242 426.477H426.039C427.492 426.477 428.32 426.344 428.523 426.078C428.727 425.812 428.828 424.953 428.828 423.5V411.57C428.828 410.086 428.75 409.133 428.594 408.711C428.438 408.273 428.133 407.953 427.68 407.75C427.227 407.531 426.523 407.422 425.57 407.422V406.531H435.953V407.422C434.906 407.422 434.203 407.531 433.844 407.75C433.484 407.953 433.203 408.211 433 408.523C432.797 408.836 432.695 409.852 432.695 411.57V422.609C432.695 424.625 432.875 425.867 433.234 426.336C433.594 426.805 434.5 427.07 435.953 427.133ZM445.234 421.391L454.516 410.656C454.484 409.453 454.258 408.617 453.836 408.148C453.414 407.68 452.688 407.438 451.656 407.422V406.531H461.641V407.422C460.594 407.422 459.891 407.531 459.531 407.75C459.172 407.953 458.891 408.211 458.688 408.523C458.484 408.836 458.383 409.852 458.383 411.57V422.961C458.383 424.617 458.469 425.609 458.641 425.938C458.812 426.25 459.078 426.531 459.438 426.781C459.812 427.016 460.547 427.133 461.641 427.133V428H451.258V427.133C452.555 427.133 453.422 426.898 453.859 426.43C454.297 425.945 454.516 424.789 454.516 422.961V412.859L445.234 423.617C445.266 424.945 445.453 425.859 445.797 426.359C446.141 426.859 446.883 427.117 448.023 427.133V428H438.109V427.133C439.5 427.133 440.391 426.883 440.781 426.383C441.172 425.867 441.367 424.727 441.367 422.961V411.57C441.367 409.898 441.281 408.914 441.109 408.617C440.938 408.305 440.672 408.031 440.312 407.797C439.953 407.547 439.219 407.422 438.109 407.422V406.531H448.492V407.422C447.445 407.422 446.742 407.531 446.383 407.75C446.023 407.953 445.742 408.211 445.539 408.523C445.336 408.836 445.234 409.852 445.234 411.57V421.391ZM483.719 406.531V407.422C482.75 407.422 482.031 407.555 481.562 407.82C481.109 408.086 480.812 408.422 480.672 408.828C480.531 409.234 480.461 410.148 480.461 411.57V422.961C480.461 424.32 480.523 425.219 480.648 425.656C480.773 426.078 481.07 426.43 481.539 426.711C482.023 426.992 482.75 427.133 483.719 427.133V428H473.336V427.133C474.633 427.133 475.5 426.898 475.938 426.43C476.375 425.945 476.594 424.789 476.594 422.961V418.297L475.633 418.32C475.492 418.32 475.242 418.312 474.883 418.297L468.039 428H462.695V427.133C463.477 427.133 464.016 427.031 464.312 426.828C464.625 426.609 465.195 425.914 466.023 424.742L471.039 417.664C467.445 416.414 465.648 414.5 465.648 411.922C465.648 410.469 466.289 409.211 467.57 408.148C468.867 407.07 471.07 406.531 474.18 406.531H483.719ZM476.594 408.312C475.984 408.141 475.406 408.055 474.859 408.055C473.281 408.055 472.102 408.445 471.32 409.227C470.539 410.008 470.148 410.938 470.148 412.016C470.148 413.391 470.703 414.531 471.812 415.438C472.922 416.344 474.32 416.797 476.008 416.797C476.18 416.797 476.375 416.781 476.594 416.75V408.312ZM505 421.391L514.281 410.656C514.25 409.453 514.023 408.617 513.602 408.148C513.18 407.68 512.453 407.438 511.422 407.422V406.531H521.406V407.422C520.359 407.422 519.656 407.531 519.297 407.75C518.938 407.953 518.656 408.211 518.453 408.523C518.25 408.836 518.148 409.852 518.148 411.57V422.961C518.148 424.617 518.234 425.609 518.406 425.938C518.578 426.25 518.844 426.531 519.203 426.781C519.578 427.016 520.312 427.133 521.406 427.133V428H511.023V427.133C512.32 427.133 513.188 426.898 513.625 426.43C514.062 425.945 514.281 424.789 514.281 422.961V412.859L505 423.617C505.031 424.945 505.219 425.859 505.562 426.359C505.906 426.859 506.648 427.117 507.789 427.133V428H497.875V427.133C499.266 427.133 500.156 426.883 500.547 426.383C500.938 425.867 501.133 424.727 501.133 422.961V411.57C501.133 409.898 501.047 408.914 500.875 408.617C500.703 408.305 500.438 408.031 500.078 407.797C499.719 407.547 498.984 407.422 497.875 407.422V406.531H508.258V407.422C507.211 407.422 506.508 407.531 506.148 407.75C505.789 407.953 505.508 408.211 505.305 408.523C505.102 408.836 505 409.852 505 411.57V421.391ZM542.219 419.844C541.641 422.672 540.508 424.852 538.82 426.383C537.133 427.898 535.266 428.656 533.219 428.656C530.781 428.656 528.656 427.633 526.844 425.586C525.031 423.539 524.125 420.773 524.125 417.289C524.125 413.914 525.125 411.172 527.125 409.062C529.141 406.953 531.555 405.898 534.367 405.898C536.477 405.898 538.211 406.461 539.57 407.586C540.93 408.695 541.609 409.852 541.609 411.055C541.609 411.648 541.414 412.133 541.023 412.508C540.648 412.867 540.117 413.047 539.43 413.047C538.508 413.047 537.812 412.75 537.344 412.156C537.078 411.828 536.898 411.203 536.805 410.281C536.727 409.359 536.414 408.656 535.867 408.172C535.32 407.703 534.562 407.469 533.594 407.469C532.031 407.469 530.773 408.047 529.82 409.203C528.555 410.734 527.922 412.758 527.922 415.273C527.922 417.836 528.547 420.102 529.797 422.07C531.062 424.023 532.766 425 534.906 425C536.438 425 537.812 424.477 539.031 423.43C539.891 422.711 540.727 421.406 541.539 419.516L542.219 419.844ZM561.297 408.055H552.016V422.961C552.016 424.617 552.102 425.609 552.273 425.938C552.445 426.25 552.711 426.531 553.07 426.781C553.445 427.016 554.18 427.133 555.273 427.133V428H544.891V427.133C546.281 427.133 547.172 426.883 547.562 426.383C547.953 425.867 548.148 424.727 548.148 422.961V411.57C548.148 409.898 548.062 408.914 547.891 408.617C547.719 408.305 547.453 408.031 547.094 407.797C546.734 407.547 546 407.422 544.891 407.422V406.531H568.422V407.422C567.375 407.422 566.672 407.531 566.312 407.75C565.953 407.953 565.672 408.211 565.469 408.523C565.266 408.836 565.164 409.852 565.164 411.57V422.961C565.164 424.617 565.25 425.609 565.422 425.938C565.594 426.25 565.859 426.531 566.219 426.781C566.594 427.016 567.328 427.133 568.422 427.133V428H558.039V427.133C559.336 427.133 560.203 426.898 560.641 426.43C561.078 425.945 561.297 424.789 561.297 422.961V408.055ZM581.5 405.898C584.75 405.898 587.359 407.133 589.328 409.602C591 411.711 591.836 414.133 591.836 416.867C591.836 418.789 591.375 420.734 590.453 422.703C589.531 424.672 588.258 426.156 586.633 427.156C585.023 428.156 583.227 428.656 581.242 428.656C578.008 428.656 575.438 427.367 573.531 424.789C571.922 422.617 571.117 420.18 571.117 417.477C571.117 415.508 571.602 413.555 572.57 411.617C573.555 409.664 574.844 408.227 576.438 407.305C578.031 406.367 579.719 405.898 581.5 405.898ZM580.773 407.422C579.945 407.422 579.109 407.672 578.266 408.172C577.438 408.656 576.766 409.516 576.25 410.75C575.734 411.984 575.477 413.57 575.477 415.508C575.477 418.633 576.094 421.328 577.328 423.594C578.578 425.859 580.219 426.992 582.25 426.992C583.766 426.992 585.016 426.367 586 425.117C586.984 423.867 587.477 421.719 587.477 418.672C587.477 414.859 586.656 411.859 585.016 409.672C583.906 408.172 582.492 407.422 580.773 407.422ZM596.547 406.531H615.742V407.422C614.68 407.422 613.969 407.531 613.609 407.75C613.266 407.953 612.992 408.211 612.789 408.523C612.586 408.836 612.484 409.852 612.484 411.57V422.961C612.484 424.617 612.57 425.609 612.742 425.938C612.914 426.25 613.18 426.531 613.539 426.781C613.914 427.016 614.648 427.133 615.742 427.133V428H604.633V427.133C605.836 427.133 606.664 427.07 607.117 426.945C607.586 426.82 607.953 426.523 608.219 426.055C608.484 425.57 608.617 424.539 608.617 422.961V408.055H601.469V417.102C601.469 420.523 601.312 422.93 601 424.32C600.703 425.695 600.102 426.719 599.195 427.391C598.305 428.047 597.281 428.375 596.125 428.375C594.125 428.375 593.125 427.547 593.125 425.891C593.125 425.328 593.281 424.867 593.594 424.508C593.922 424.148 594.344 423.969 594.859 423.969C595.406 423.969 595.914 424.195 596.383 424.648C596.992 425.242 597.453 425.539 597.766 425.539C598.469 425.539 598.977 424.953 599.289 423.781C599.617 422.594 599.781 420.523 599.781 417.57V412.836C599.781 410.398 599.602 408.914 599.242 408.383C598.898 407.852 598 407.531 596.547 407.422V406.531ZM625 416.094L627.672 416.047C634.047 416.047 637.234 418.016 637.234 421.953C637.234 423.781 636.453 425.25 634.891 426.359C633.344 427.453 631.109 428 628.188 428H617.875V427.133C619.266 427.133 620.156 426.883 620.547 426.383C620.938 425.867 621.133 424.727 621.133 422.961V411.57C621.133 409.898 621.047 408.914 620.875 408.617C620.703 408.305 620.438 408.031 620.078 407.797C619.719 407.547 618.984 407.422 617.875 407.422V406.531H629.102V407.422C627.555 407.422 626.602 407.516 626.242 407.703C625.883 407.875 625.586 408.109 625.352 408.406C625.117 408.688 625 409.742 625 411.57V416.094ZM625 426.148C625.828 426.367 626.656 426.477 627.484 426.477C629.047 426.477 630.312 426.062 631.281 425.234C632.266 424.406 632.758 423.359 632.758 422.094C632.758 419.094 630.672 417.594 626.5 417.594C626.141 417.594 625.641 417.602 625 417.617V426.148ZM640.656 413.258V406.531H641.641C641.922 406.781 642.234 406.906 642.578 406.906C642.844 406.906 643.422 406.781 644.312 406.531C645.797 406.109 647.008 405.898 647.945 405.898C650.008 405.898 651.727 406.375 653.102 407.328C654.492 408.281 655.188 409.547 655.188 411.125C655.188 413.547 653.352 415.305 649.68 416.398C653.961 417.289 656.102 419.297 656.102 422.422C656.102 424.062 655.414 425.516 654.039 426.781C652.664 428.031 650.664 428.656 648.039 428.656C646.32 428.656 644.805 428.352 643.492 427.742C642.195 427.117 640.781 426.07 639.25 424.602L639.859 423.992C642.422 425.977 644.852 426.969 647.148 426.969C648.461 426.969 649.539 426.523 650.383 425.633C651.227 424.742 651.648 423.586 651.648 422.164C651.648 419.055 649.641 417.406 645.625 417.219V415.859C647.516 415.859 648.883 415.359 649.727 414.359C650.586 413.344 651.016 412.258 651.016 411.102C651.016 410.086 650.648 409.195 649.914 408.43C649.195 407.664 648.234 407.281 647.031 407.281C644.25 407.281 642.406 409.273 641.5 413.258H640.656ZM656.922 406.531H666.93V407.398H666.438C665.734 407.398 665.203 407.555 664.844 407.867C664.5 408.164 664.328 408.539 664.328 408.992C664.328 409.602 664.586 410.445 665.102 411.523L670.328 422.352L675.133 410.492C675.398 409.852 675.531 409.219 675.531 408.594C675.531 408.312 675.477 408.102 675.367 407.961C675.242 407.789 675.047 407.656 674.781 407.562C674.516 407.453 674.047 407.398 673.375 407.398V406.531H680.359V407.398C679.781 407.461 679.336 407.586 679.023 407.773C678.711 407.961 678.367 408.312 677.992 408.828C677.852 409.047 677.586 409.648 677.195 410.633L668.453 432.055C667.609 434.133 666.5 435.703 665.125 436.766C663.766 437.828 662.453 438.359 661.188 438.359C660.266 438.359 659.508 438.094 658.914 437.562C658.32 437.031 658.023 436.422 658.023 435.734C658.023 435.078 658.234 434.547 658.656 434.141C659.094 433.75 659.688 433.555 660.438 433.555C660.953 433.555 661.656 433.727 662.547 434.07C663.172 434.305 663.562 434.422 663.719 434.422C664.188 434.422 664.695 434.18 665.242 433.695C665.805 433.211 666.367 432.273 666.93 430.883L668.453 427.156L660.742 410.961C660.508 410.477 660.133 409.875 659.617 409.156C659.227 408.609 658.906 408.242 658.656 408.055C658.297 407.805 657.719 407.586 656.922 407.398V406.531ZM685.094 414.617C685.078 417.805 685.852 420.305 687.414 422.117C688.977 423.93 690.812 424.836 692.922 424.836C694.328 424.836 695.547 424.453 696.578 423.688C697.625 422.906 698.5 421.578 699.203 419.703L699.93 420.172C699.602 422.312 698.648 424.266 697.07 426.031C695.492 427.781 693.516 428.656 691.141 428.656C688.562 428.656 686.352 427.656 684.508 425.656C682.68 423.641 681.766 420.938 681.766 417.547C681.766 413.875 682.703 411.016 684.578 408.969C686.469 406.906 688.836 405.875 691.68 405.875C694.086 405.875 696.062 406.672 697.609 408.266C699.156 409.844 699.93 411.961 699.93 414.617H685.094ZM685.094 413.258H695.031C694.953 411.883 694.789 410.914 694.539 410.352C694.148 409.477 693.562 408.789 692.781 408.289C692.016 407.789 691.211 407.539 690.367 407.539C689.07 407.539 687.906 408.047 686.875 409.062C685.859 410.062 685.266 411.461 685.094 413.258ZM716.688 422.398L723.391 406.531H730.633V407.422C729.57 407.422 728.859 407.531 728.5 407.75C728.156 407.953 727.883 408.211 727.68 408.523C727.477 408.836 727.375 409.852 727.375 411.57V422.961C727.375 424.445 727.445 425.406 727.586 425.844C727.742 426.266 728.047 426.586 728.5 426.805C728.969 427.023 729.68 427.133 730.633 427.133V428H720.25V427.133C721.531 427.133 722.391 426.898 722.828 426.43C723.266 425.945 723.484 424.789 723.484 422.961V410.047L715.891 428H715.07L707.336 410.047V422.961C707.336 424.445 707.414 425.406 707.57 425.844C707.727 426.266 708.031 426.586 708.484 426.805C708.938 427.023 709.641 427.133 710.594 427.133V428H702.391V427.133C703.781 427.133 704.672 426.883 705.062 426.383C705.453 425.867 705.648 424.727 705.648 422.961V411.57C705.648 409.898 705.562 408.914 705.391 408.617C705.219 408.305 704.953 408.031 704.594 407.797C704.234 407.547 703.5 407.422 702.391 407.422V406.531H709.938L716.688 422.398ZM752.055 407.422V406.531H762.859V407.422C761.906 407.422 761.211 407.523 760.773 407.727C760.336 407.93 760.031 408.242 759.859 408.664C759.703 409.086 759.625 410.055 759.625 411.57V422.961C759.625 424.43 759.695 425.383 759.836 425.82C759.977 426.242 760.273 426.57 760.727 426.805C761.195 427.023 761.906 427.133 762.859 427.133V428H752.055V427.133C753.273 427.086 754.062 427.008 754.422 426.898C754.797 426.773 755.109 426.469 755.359 425.984C755.609 425.5 755.734 424.492 755.734 422.961V411.57C755.734 410.055 755.648 409.078 755.477 408.641C755.305 408.203 755 407.898 754.562 407.727C754.141 407.539 753.305 407.438 752.055 407.422ZM739.867 416.094L742.539 416.047C748.914 416.047 752.102 418.016 752.102 421.953C752.102 423.781 751.32 425.25 749.758 426.359C748.211 427.453 745.977 428 743.055 428H732.742V427.133C734.133 427.133 735.023 426.883 735.414 426.383C735.805 425.867 736 424.727 736 422.961V411.57C736 409.898 735.914 408.914 735.742 408.617C735.57 408.305 735.305 408.031 734.945 407.797C734.586 407.547 733.852 407.422 732.742 407.422V406.531H743.969V407.422C742.422 407.422 741.469 407.516 741.109 407.703C740.75 407.875 740.453 408.109 740.219 408.406C739.984 408.688 739.867 409.742 739.867 411.57V416.094ZM739.867 426.148C740.695 426.367 741.523 426.477 742.352 426.477C743.914 426.477 745.18 426.062 746.148 425.234C747.133 424.406 747.625 423.359 747.625 422.094C747.625 419.094 745.539 417.594 741.367 417.594C741.008 417.594 740.508 417.602 739.867 417.617V426.148ZM764.57 406.531H774.672V407.398C774.031 407.398 773.578 407.508 773.312 407.727C773.062 407.945 772.938 408.234 772.938 408.594C772.938 408.969 773.211 409.547 773.758 410.328C773.93 410.578 774.188 410.969 774.531 411.5L776.055 413.938L777.812 411.5C778.938 409.953 779.5 408.977 779.5 408.57C779.5 408.242 779.367 407.969 779.102 407.75C778.836 407.516 778.406 407.398 777.812 407.398V406.531H785.078V407.398C784.312 407.445 783.648 407.656 783.086 408.031C782.32 408.562 781.273 409.719 779.945 411.5L777.016 415.414L782.359 423.102C783.672 424.992 784.609 426.133 785.172 426.523C785.734 426.898 786.461 427.109 787.352 427.156V428H777.227V427.156C777.93 427.156 778.477 427 778.867 426.688C779.164 426.469 779.312 426.18 779.312 425.82C779.312 425.461 778.812 424.555 777.812 423.102L774.672 418.508L771.227 423.102C770.164 424.523 769.633 425.367 769.633 425.633C769.633 426.008 769.805 426.352 770.148 426.664C770.508 426.961 771.039 427.125 771.742 427.156V428H764.734V427.156C765.297 427.078 765.789 426.883 766.211 426.57C766.805 426.117 767.805 424.961 769.211 423.102L773.711 417.125L769.633 411.219C768.477 409.531 767.578 408.477 766.938 408.055C766.312 407.617 765.523 407.398 764.57 407.398V406.531ZM809.945 397.32L816.273 394.672H817.305V407.867C818.727 406.555 820.172 405.898 821.641 405.898C823.656 405.898 825.383 407.008 826.82 409.227C828.273 411.445 829 414.133 829 417.289C829 420.383 828.266 423.055 826.797 425.305C825.328 427.539 823.547 428.656 821.453 428.656C819.906 428.656 818.523 427.969 817.305 426.594V433.227C817.305 434.789 817.391 435.781 817.562 436.203C817.75 436.641 818.078 436.945 818.547 437.117C819.016 437.305 820 437.398 821.5 437.398V438.266H809.945V437.398C811.508 437.398 812.516 437.172 812.969 436.719C813.438 436.281 813.672 435.117 813.672 433.227V426.594C812.5 427.969 811.125 428.656 809.547 428.656C807.375 428.656 805.57 427.531 804.133 425.281C802.695 423.031 801.977 420.289 801.977 417.055C801.977 414.133 802.664 411.547 804.039 409.297C805.414 407.031 807.211 405.898 809.43 405.898C811.07 405.898 812.484 406.648 813.672 408.148V402.336C813.672 400.336 813.547 399.062 813.297 398.516C813.047 397.969 812.609 397.695 811.984 397.695C811.469 397.695 810.906 397.828 810.297 398.094L809.945 397.32ZM813.672 410.234C812.797 408.391 811.672 407.469 810.297 407.469C808.969 407.469 807.93 408.344 807.18 410.094C806.445 411.828 806.078 414.414 806.078 417.852C806.078 420.883 806.445 423.18 807.18 424.742C807.93 426.289 808.969 427.062 810.297 427.062C811.516 427.062 812.641 426.352 813.672 424.93V410.234ZM817.305 424.531C817.617 425.344 818.109 425.969 818.781 426.406C819.453 426.844 820.094 427.062 820.703 427.062C821.906 427.062 822.891 426.305 823.656 424.789C824.438 423.273 824.828 420.906 824.828 417.688C824.828 410.875 823.477 407.469 820.773 407.469C819.633 407.469 818.477 408.102 817.305 409.367V424.531ZM844.727 424.906C842.523 426.609 841.141 427.594 840.578 427.859C839.734 428.25 838.836 428.445 837.883 428.445C836.398 428.445 835.172 427.938 834.203 426.922C833.25 425.906 832.773 424.57 832.773 422.914C832.773 421.867 833.008 420.961 833.477 420.195C834.117 419.133 835.227 418.133 836.805 417.195C838.398 416.258 841.039 415.117 844.727 413.773V412.93C844.727 410.789 844.383 409.32 843.695 408.523C843.023 407.727 842.039 407.328 840.742 407.328C839.758 407.328 838.977 407.594 838.398 408.125C837.805 408.656 837.508 409.266 837.508 409.953L837.555 411.312C837.555 412.031 837.367 412.586 836.992 412.977C836.633 413.367 836.156 413.562 835.562 413.562C834.984 413.562 834.508 413.359 834.133 412.953C833.773 412.547 833.594 411.992 833.594 411.289C833.594 409.945 834.281 408.711 835.656 407.586C837.031 406.461 838.961 405.898 841.445 405.898C843.352 405.898 844.914 406.219 846.133 406.859C847.055 407.344 847.734 408.102 848.172 409.133C848.453 409.805 848.594 411.18 848.594 413.258V420.547C848.594 422.594 848.633 423.852 848.711 424.32C848.789 424.773 848.914 425.078 849.086 425.234C849.273 425.391 849.484 425.469 849.719 425.469C849.969 425.469 850.188 425.414 850.375 425.305C850.703 425.102 851.336 424.531 852.273 423.594V424.906C850.523 427.25 848.852 428.422 847.258 428.422C846.492 428.422 845.883 428.156 845.43 427.625C844.977 427.094 844.742 426.188 844.727 424.906ZM844.727 423.383V415.203C842.367 416.141 840.844 416.805 840.156 417.195C838.922 417.883 838.039 418.602 837.508 419.352C836.977 420.102 836.711 420.922 836.711 421.812C836.711 422.938 837.047 423.875 837.719 424.625C838.391 425.359 839.164 425.727 840.039 425.727C841.227 425.727 842.789 424.945 844.727 423.383ZM857.547 397.93C857.547 397.383 857.695 396.945 857.992 396.617C858.305 396.273 858.695 396.102 859.164 396.102C860.195 396.102 861.109 397.07 861.906 399.008C862.359 400.102 862.875 400.789 863.453 401.07C864.047 401.336 864.625 401.469 865.188 401.469C866.172 401.469 866.914 401.258 867.414 400.836C867.914 400.414 868.383 399.656 868.82 398.562C869.477 396.938 870.281 396.125 871.234 396.125C871.703 396.125 872.102 396.297 872.43 396.641C872.758 396.969 872.922 397.383 872.922 397.883C872.922 399.086 872.133 400.203 870.555 401.234C868.977 402.266 867.203 402.781 865.234 402.781C862.656 402.781 860.727 402.312 859.445 401.375C858.18 400.438 857.547 399.289 857.547 397.93ZM860.594 421.391L869.875 410.656C869.844 409.453 869.617 408.617 869.195 408.148C868.773 407.68 868.047 407.438 867.016 407.422V406.531H877V407.422C875.953 407.422 875.25 407.531 874.891 407.75C874.531 407.953 874.25 408.211 874.047 408.523C873.844 408.836 873.742 409.852 873.742 411.57V422.961C873.742 424.617 873.828 425.609 874 425.938C874.172 426.25 874.438 426.531 874.797 426.781C875.172 427.016 875.906 427.133 877 427.133V428H866.617V427.133C867.914 427.133 868.781 426.898 869.219 426.43C869.656 425.945 869.875 424.789 869.875 422.961V412.859L860.594 423.617C860.625 424.945 860.812 425.859 861.156 426.359C861.5 426.859 862.242 427.117 863.383 427.133V428H853.469V427.133C854.859 427.133 855.75 426.883 856.141 426.383C856.531 425.867 856.727 424.727 856.727 422.961V411.57C856.727 409.898 856.641 408.914 856.469 408.617C856.297 408.305 856.031 408.031 855.672 407.797C855.312 407.547 854.578 407.422 853.469 407.422V406.531H863.852V407.422C862.805 407.422 862.102 407.531 861.742 407.75C861.383 407.953 861.102 408.211 860.898 408.523C860.695 408.836 860.594 409.852 860.594 411.57V421.391ZM881.781 406.531H900.977V407.422C899.914 407.422 899.203 407.531 898.844 407.75C898.5 407.953 898.227 408.211 898.023 408.523C897.82 408.836 897.719 409.852 897.719 411.57V422.961C897.719 424.617 897.805 425.609 897.977 425.938C898.148 426.25 898.414 426.531 898.773 426.781C899.148 427.016 899.883 427.133 900.977 427.133V428H889.867V427.133C891.07 427.133 891.898 427.07 892.352 426.945C892.82 426.82 893.188 426.523 893.453 426.055C893.719 425.57 893.852 424.539 893.852 422.961V408.055H886.703V417.102C886.703 420.523 886.547 422.93 886.234 424.32C885.938 425.695 885.336 426.719 884.43 427.391C883.539 428.047 882.516 428.375 881.359 428.375C879.359 428.375 878.359 427.547 878.359 425.891C878.359 425.328 878.516 424.867 878.828 424.508C879.156 424.148 879.578 423.969 880.094 423.969C880.641 423.969 881.148 424.195 881.617 424.648C882.227 425.242 882.688 425.539 883 425.539C883.703 425.539 884.211 424.953 884.523 423.781C884.852 422.594 885.016 420.523 885.016 417.57V412.836C885.016 410.398 884.836 408.914 884.477 408.383C884.133 407.852 883.234 407.531 881.781 407.422V406.531ZM914.031 405.898C917.281 405.898 919.891 407.133 921.859 409.602C923.531 411.711 924.367 414.133 924.367 416.867C924.367 418.789 923.906 420.734 922.984 422.703C922.062 424.672 920.789 426.156 919.164 427.156C917.555 428.156 915.758 428.656 913.773 428.656C910.539 428.656 907.969 427.367 906.062 424.789C904.453 422.617 903.648 420.18 903.648 417.477C903.648 415.508 904.133 413.555 905.102 411.617C906.086 409.664 907.375 408.227 908.969 407.305C910.562 406.367 912.25 405.898 914.031 405.898ZM913.305 407.422C912.477 407.422 911.641 407.672 910.797 408.172C909.969 408.656 909.297 409.516 908.781 410.75C908.266 411.984 908.008 413.57 908.008 415.508C908.008 418.633 908.625 421.328 909.859 423.594C911.109 425.859 912.75 426.992 914.781 426.992C916.297 426.992 917.547 426.367 918.531 425.117C919.516 423.867 920.008 421.719 920.008 418.672C920.008 414.859 919.188 411.859 917.547 409.672C916.438 408.172 915.023 407.422 913.305 407.422ZM941.148 416.656C945.07 417.469 947.031 419.305 947.031 422.164C947.031 424.117 946.211 425.578 944.57 426.547C942.945 427.516 940.672 428 937.75 428H927.156V427.133C928.547 427.133 929.422 426.875 929.781 426.359C930.156 425.828 930.344 424.695 930.344 422.961V411.57C930.344 409.883 930.258 408.891 930.086 408.594C929.93 408.297 929.672 408.031 929.312 407.797C928.969 407.547 928.25 407.422 927.156 407.422V406.531H937.047C938.953 406.531 940.492 406.68 941.664 406.977C942.852 407.273 943.82 407.859 944.57 408.734C945.336 409.609 945.719 410.672 945.719 411.922C945.719 414.359 944.195 415.938 941.148 416.656ZM934.234 416.117C934.922 416.133 935.336 416.141 935.477 416.141C937.617 416.141 939.164 415.734 940.117 414.922C941.07 414.094 941.547 413.094 941.547 411.922C941.547 410.562 941.062 409.578 940.094 408.969C939.125 408.359 937.578 408.055 935.453 408.055H934.234V416.117ZM934.234 426.102C935.016 426.352 935.945 426.477 937.023 426.477C938.883 426.477 940.266 426.07 941.172 425.258C942.078 424.445 942.531 423.398 942.531 422.117C942.531 420.68 941.945 419.578 940.773 418.812C939.602 418.047 937.977 417.664 935.898 417.664C935.383 417.664 934.828 417.68 934.234 417.711V426.102ZM118.094 516.25C119.719 516.25 121.102 516.828 122.242 517.984C123.398 519.125 123.977 520.508 123.977 522.133C123.977 523.758 123.398 525.148 122.242 526.305C121.102 527.445 119.719 528.016 118.094 528.016C116.469 528.016 115.078 527.445 113.922 526.305C112.781 525.148 112.211 523.758 112.211 522.133C112.211 520.508 112.781 519.125 113.922 517.984C115.062 516.828 116.453 516.25 118.094 516.25ZM163.844 523.117V532.375C163.844 534.375 164.062 535.617 164.5 536.102C165.094 536.789 165.992 537.133 167.195 537.133H168.414V538H154.797V537.133H155.992C157.336 537.133 158.297 536.695 158.875 535.82C159.188 535.336 159.344 534.188 159.344 532.375V511.844C159.344 509.844 159.133 508.602 158.711 508.117C158.102 507.43 157.195 507.086 155.992 507.086H154.797V506.219H166.445C169.289 506.219 171.531 506.516 173.172 507.109C174.812 507.688 176.195 508.672 177.32 510.062C178.445 511.453 179.008 513.102 179.008 515.008C179.008 517.602 178.148 519.711 176.43 521.336C174.727 522.961 172.312 523.773 169.188 523.773C168.422 523.773 167.594 523.719 166.703 523.609C165.812 523.5 164.859 523.336 163.844 523.117ZM163.844 521.781C164.672 521.938 165.406 522.055 166.047 522.133C166.688 522.211 167.234 522.25 167.688 522.25C169.312 522.25 170.711 521.625 171.883 520.375C173.07 519.109 173.664 517.477 173.664 515.477C173.664 514.102 173.383 512.828 172.82 511.656C172.258 510.469 171.461 509.586 170.43 509.008C169.398 508.414 168.227 508.117 166.914 508.117C166.117 508.117 165.094 508.266 163.844 508.562V521.781ZM194.383 534.906C192.18 536.609 190.797 537.594 190.234 537.859C189.391 538.25 188.492 538.445 187.539 538.445C186.055 538.445 184.828 537.938 183.859 536.922C182.906 535.906 182.43 534.57 182.43 532.914C182.43 531.867 182.664 530.961 183.133 530.195C183.773 529.133 184.883 528.133 186.461 527.195C188.055 526.258 190.695 525.117 194.383 523.773V522.93C194.383 520.789 194.039 519.32 193.352 518.523C192.68 517.727 191.695 517.328 190.398 517.328C189.414 517.328 188.633 517.594 188.055 518.125C187.461 518.656 187.164 519.266 187.164 519.953L187.211 521.312C187.211 522.031 187.023 522.586 186.648 522.977C186.289 523.367 185.812 523.562 185.219 523.562C184.641 523.562 184.164 523.359 183.789 522.953C183.43 522.547 183.25 521.992 183.25 521.289C183.25 519.945 183.938 518.711 185.312 517.586C186.688 516.461 188.617 515.898 191.102 515.898C193.008 515.898 194.57 516.219 195.789 516.859C196.711 517.344 197.391 518.102 197.828 519.133C198.109 519.805 198.25 521.18 198.25 523.258V530.547C198.25 532.594 198.289 533.852 198.367 534.32C198.445 534.773 198.57 535.078 198.742 535.234C198.93 535.391 199.141 535.469 199.375 535.469C199.625 535.469 199.844 535.414 200.031 535.305C200.359 535.102 200.992 534.531 201.93 533.594V534.906C200.18 537.25 198.508 538.422 196.914 538.422C196.148 538.422 195.539 538.156 195.086 537.625C194.633 537.094 194.398 536.188 194.383 534.906ZM194.383 533.383V525.203C192.023 526.141 190.5 526.805 189.812 527.195C188.578 527.883 187.695 528.602 187.164 529.352C186.633 530.102 186.367 530.922 186.367 531.812C186.367 532.938 186.703 533.875 187.375 534.625C188.047 535.359 188.82 535.727 189.695 535.727C190.883 535.727 192.445 534.945 194.383 533.383ZM221.781 529.844C221.203 532.672 220.07 534.852 218.383 536.383C216.695 537.898 214.828 538.656 212.781 538.656C210.344 538.656 208.219 537.633 206.406 535.586C204.594 533.539 203.688 530.773 203.688 527.289C203.688 523.914 204.688 521.172 206.688 519.062C208.703 516.953 211.117 515.898 213.93 515.898C216.039 515.898 217.773 516.461 219.133 517.586C220.492 518.695 221.172 519.852 221.172 521.055C221.172 521.648 220.977 522.133 220.586 522.508C220.211 522.867 219.68 523.047 218.992 523.047C218.07 523.047 217.375 522.75 216.906 522.156C216.641 521.828 216.461 521.203 216.367 520.281C216.289 519.359 215.977 518.656 215.43 518.172C214.883 517.703 214.125 517.469 213.156 517.469C211.594 517.469 210.336 518.047 209.383 519.203C208.117 520.734 207.484 522.758 207.484 525.273C207.484 527.836 208.109 530.102 209.359 532.07C210.625 534.023 212.328 535 214.469 535C216 535 217.375 534.477 218.594 533.43C219.453 532.711 220.289 531.406 221.102 529.516L221.781 529.844ZM240.859 518.055H231.578V532.961C231.578 534.617 231.664 535.609 231.836 535.938C232.008 536.25 232.273 536.531 232.633 536.781C233.008 537.016 233.742 537.133 234.836 537.133V538H224.453V537.133C225.844 537.133 226.734 536.883 227.125 536.383C227.516 535.867 227.711 534.727 227.711 532.961V521.57C227.711 519.898 227.625 518.914 227.453 518.617C227.281 518.305 227.016 518.031 226.656 517.797C226.297 517.547 225.562 517.422 224.453 517.422V516.531H247.984V517.422C246.938 517.422 246.234 517.531 245.875 517.75C245.516 517.953 245.234 518.211 245.031 518.523C244.828 518.836 244.727 519.852 244.727 521.57V532.961C244.727 534.617 244.812 535.609 244.984 535.938C245.156 536.25 245.422 536.531 245.781 536.781C246.156 537.016 246.891 537.133 247.984 537.133V538H237.602V537.133C238.898 537.133 239.766 536.898 240.203 536.43C240.641 535.945 240.859 534.789 240.859 532.961V518.055ZM249.016 518.664L255.625 515.992H256.516V521.008C257.625 519.117 258.734 517.797 259.844 517.047C260.969 516.281 262.148 515.898 263.383 515.898C265.539 515.898 267.336 516.742 268.773 518.43C270.539 520.492 271.422 523.18 271.422 526.492C271.422 530.195 270.359 533.258 268.234 535.68C266.484 537.664 264.281 538.656 261.625 538.656C260.469 538.656 259.469 538.492 258.625 538.164C258 537.93 257.297 537.461 256.516 536.758V543.297C256.516 544.766 256.602 545.695 256.773 546.086C256.961 546.492 257.273 546.812 257.711 547.047C258.164 547.281 258.977 547.398 260.148 547.398V548.266H248.898V547.398H249.484C250.344 547.414 251.078 547.25 251.688 546.906C251.984 546.734 252.211 546.453 252.367 546.062C252.539 545.688 252.625 544.719 252.625 543.156V522.859C252.625 521.469 252.562 520.586 252.438 520.211C252.312 519.836 252.109 519.555 251.828 519.367C251.562 519.18 251.195 519.086 250.727 519.086C250.352 519.086 249.875 519.195 249.297 519.414L249.016 518.664ZM256.516 522.391V530.406C256.516 532.141 256.586 533.281 256.727 533.828C256.945 534.734 257.477 535.531 258.32 536.219C259.18 536.906 260.258 537.25 261.555 537.25C263.117 537.25 264.383 536.641 265.352 535.422C266.617 533.828 267.25 531.586 267.25 528.695C267.25 525.414 266.531 522.891 265.094 521.125C264.094 519.906 262.906 519.297 261.531 519.297C260.781 519.297 260.039 519.484 259.305 519.859C258.742 520.141 257.812 520.984 256.516 522.391ZM285.062 515.898C288.312 515.898 290.922 517.133 292.891 519.602C294.562 521.711 295.398 524.133 295.398 526.867C295.398 528.789 294.938 530.734 294.016 532.703C293.094 534.672 291.82 536.156 290.195 537.156C288.586 538.156 286.789 538.656 284.805 538.656C281.57 538.656 279 537.367 277.094 534.789C275.484 532.617 274.68 530.18 274.68 527.477C274.68 525.508 275.164 523.555 276.133 521.617C277.117 519.664 278.406 518.227 280 517.305C281.594 516.367 283.281 515.898 285.062 515.898ZM284.336 517.422C283.508 517.422 282.672 517.672 281.828 518.172C281 518.656 280.328 519.516 279.812 520.75C279.297 521.984 279.039 523.57 279.039 525.508C279.039 528.633 279.656 531.328 280.891 533.594C282.141 535.859 283.781 536.992 285.812 536.992C287.328 536.992 288.578 536.367 289.562 535.117C290.547 533.867 291.039 531.719 291.039 528.672C291.039 524.859 290.219 521.859 288.578 519.672C287.469 518.172 286.055 517.422 284.336 517.422ZM318.016 529.844C317.438 532.672 316.305 534.852 314.617 536.383C312.93 537.898 311.062 538.656 309.016 538.656C306.578 538.656 304.453 537.633 302.641 535.586C300.828 533.539 299.922 530.773 299.922 527.289C299.922 523.914 300.922 521.172 302.922 519.062C304.938 516.953 307.352 515.898 310.164 515.898C312.273 515.898 314.008 516.461 315.367 517.586C316.727 518.695 317.406 519.852 317.406 521.055C317.406 521.648 317.211 522.133 316.82 522.508C316.445 522.867 315.914 523.047 315.227 523.047C314.305 523.047 313.609 522.75 313.141 522.156C312.875 521.828 312.695 521.203 312.602 520.281C312.523 519.359 312.211 518.656 311.664 518.172C311.117 517.703 310.359 517.469 309.391 517.469C307.828 517.469 306.57 518.047 305.617 519.203C304.352 520.734 303.719 522.758 303.719 525.273C303.719 527.836 304.344 530.102 305.594 532.07C306.859 534.023 308.562 535 310.703 535C312.234 535 313.609 534.477 314.828 533.43C315.688 532.711 316.523 531.406 317.336 529.516L318.016 529.844ZM320.781 516.531H339.344L340.281 522.344H339.227C339.039 521.172 338.727 520.266 338.289 519.625C337.852 518.984 337.352 518.562 336.789 518.359C336.227 518.156 335.266 518.055 333.906 518.055H332.031V532.961C332.031 534.555 332.125 535.57 332.312 536.008C332.516 536.43 332.836 536.711 333.273 536.852C333.711 536.992 334.711 537.086 336.273 537.133V538H324.602V537.133C326.102 537.102 327.062 536.859 327.484 536.406C327.922 535.953 328.141 534.805 328.141 532.961V518.055H326.219C324.875 518.055 323.961 518.141 323.477 518.312C322.992 518.469 322.523 518.859 322.07 519.484C321.633 520.094 321.258 521.047 320.945 522.344H319.891L320.781 516.531ZM341.172 518.664L347.781 515.992H348.672V521.008C349.781 519.117 350.891 517.797 352 517.047C353.125 516.281 354.305 515.898 355.539 515.898C357.695 515.898 359.492 516.742 360.93 518.43C362.695 520.492 363.578 523.18 363.578 526.492C363.578 530.195 362.516 533.258 360.391 535.68C358.641 537.664 356.438 538.656 353.781 538.656C352.625 538.656 351.625 538.492 350.781 538.164C350.156 537.93 349.453 537.461 348.672 536.758V543.297C348.672 544.766 348.758 545.695 348.93 546.086C349.117 546.492 349.43 546.812 349.867 547.047C350.32 547.281 351.133 547.398 352.305 547.398V548.266H341.055V547.398H341.641C342.5 547.414 343.234 547.25 343.844 546.906C344.141 546.734 344.367 546.453 344.523 546.062C344.695 545.688 344.781 544.719 344.781 543.156V522.859C344.781 521.469 344.719 520.586 344.594 520.211C344.469 519.836 344.266 519.555 343.984 519.367C343.719 519.18 343.352 519.086 342.883 519.086C342.508 519.086 342.031 519.195 341.453 519.414L341.172 518.664ZM348.672 522.391V530.406C348.672 532.141 348.742 533.281 348.883 533.828C349.102 534.734 349.633 535.531 350.477 536.219C351.336 536.906 352.414 537.25 353.711 537.25C355.273 537.25 356.539 536.641 357.508 535.422C358.773 533.828 359.406 531.586 359.406 528.695C359.406 525.414 358.688 522.891 357.25 521.125C356.25 519.906 355.062 519.297 353.688 519.297C352.938 519.297 352.195 519.484 351.461 519.859C350.898 520.141 349.969 520.984 348.672 522.391ZM378.883 534.906C376.68 536.609 375.297 537.594 374.734 537.859C373.891 538.25 372.992 538.445 372.039 538.445C370.555 538.445 369.328 537.938 368.359 536.922C367.406 535.906 366.93 534.57 366.93 532.914C366.93 531.867 367.164 530.961 367.633 530.195C368.273 529.133 369.383 528.133 370.961 527.195C372.555 526.258 375.195 525.117 378.883 523.773V522.93C378.883 520.789 378.539 519.32 377.852 518.523C377.18 517.727 376.195 517.328 374.898 517.328C373.914 517.328 373.133 517.594 372.555 518.125C371.961 518.656 371.664 519.266 371.664 519.953L371.711 521.312C371.711 522.031 371.523 522.586 371.148 522.977C370.789 523.367 370.312 523.562 369.719 523.562C369.141 523.562 368.664 523.359 368.289 522.953C367.93 522.547 367.75 521.992 367.75 521.289C367.75 519.945 368.438 518.711 369.812 517.586C371.188 516.461 373.117 515.898 375.602 515.898C377.508 515.898 379.07 516.219 380.289 516.859C381.211 517.344 381.891 518.102 382.328 519.133C382.609 519.805 382.75 521.18 382.75 523.258V530.547C382.75 532.594 382.789 533.852 382.867 534.32C382.945 534.773 383.07 535.078 383.242 535.234C383.43 535.391 383.641 535.469 383.875 535.469C384.125 535.469 384.344 535.414 384.531 535.305C384.859 535.102 385.492 534.531 386.43 533.594V534.906C384.68 537.25 383.008 538.422 381.414 538.422C380.648 538.422 380.039 538.156 379.586 537.625C379.133 537.094 378.898 536.188 378.883 534.906ZM378.883 533.383V525.203C376.523 526.141 375 526.805 374.312 527.195C373.078 527.883 372.195 528.602 371.664 529.352C371.133 530.102 370.867 530.922 370.867 531.812C370.867 532.938 371.203 533.875 371.875 534.625C372.547 535.359 373.32 535.727 374.195 535.727C375.383 535.727 376.945 534.945 378.883 533.383ZM394.75 526.117H404.031V521.57C404.031 520.211 403.977 519.328 403.867 518.922C403.758 518.5 403.484 518.148 403.047 517.867C402.625 517.57 401.867 517.422 400.773 517.422V516.531H411.156V517.422C410.188 517.422 409.477 517.531 409.023 517.75C408.586 517.969 408.289 518.289 408.133 518.711C407.977 519.117 407.898 520.07 407.898 521.57V532.961C407.898 534.32 407.953 535.219 408.062 535.656C408.188 536.094 408.477 536.453 408.93 536.734C409.383 537 410.125 537.133 411.156 537.133V538H400.773V537.133C402.07 537.133 402.938 536.898 403.375 536.43C403.812 535.945 404.031 534.789 404.031 532.961V527.641H394.75V532.961C394.75 534.32 394.805 535.219 394.914 535.656C395.039 536.094 395.328 536.453 395.781 536.734C396.234 537 396.977 537.133 398.008 537.133V538H387.625V537.133C389.016 537.133 389.906 536.883 390.297 536.383C390.688 535.867 390.883 534.727 390.883 532.961V521.57C390.883 520.211 390.82 519.312 390.695 518.875C390.586 518.438 390.305 518.086 389.852 517.82C389.398 517.555 388.656 517.422 387.625 517.422V516.531H398.008V517.422C397.039 517.422 396.328 517.531 395.875 517.75C395.438 517.969 395.141 518.289 394.984 518.711C394.828 519.117 394.75 520.07 394.75 521.57V526.117ZM417.344 524.617C417.328 527.805 418.102 530.305 419.664 532.117C421.227 533.93 423.062 534.836 425.172 534.836C426.578 534.836 427.797 534.453 428.828 533.688C429.875 532.906 430.75 531.578 431.453 529.703L432.18 530.172C431.852 532.312 430.898 534.266 429.32 536.031C427.742 537.781 425.766 538.656 423.391 538.656C420.812 538.656 418.602 537.656 416.758 535.656C414.93 533.641 414.016 530.938 414.016 527.547C414.016 523.875 414.953 521.016 416.828 518.969C418.719 516.906 421.086 515.875 423.93 515.875C426.336 515.875 428.312 516.672 429.859 518.266C431.406 519.844 432.18 521.961 432.18 524.617H417.344ZM417.344 523.258H427.281C427.203 521.883 427.039 520.914 426.789 520.352C426.398 519.477 425.812 518.789 425.031 518.289C424.266 517.789 423.461 517.539 422.617 517.539C421.32 517.539 420.156 518.047 419.125 519.062C418.109 520.062 417.516 521.461 417.344 523.258ZM441.766 526.117H451.047V521.57C451.047 520.211 450.992 519.328 450.883 518.922C450.773 518.5 450.5 518.148 450.062 517.867C449.641 517.57 448.883 517.422 447.789 517.422V516.531H458.172V517.422C457.203 517.422 456.492 517.531 456.039 517.75C455.602 517.969 455.305 518.289 455.148 518.711C454.992 519.117 454.914 520.07 454.914 521.57V532.961C454.914 534.32 454.969 535.219 455.078 535.656C455.203 536.094 455.492 536.453 455.945 536.734C456.398 537 457.141 537.133 458.172 537.133V538H447.789V537.133C449.086 537.133 449.953 536.898 450.391 536.43C450.828 535.945 451.047 534.789 451.047 532.961V527.641H441.766V532.961C441.766 534.32 441.82 535.219 441.93 535.656C442.055 536.094 442.344 536.453 442.797 536.734C443.25 537 443.992 537.133 445.023 537.133V538H434.641V537.133C436.031 537.133 436.922 536.883 437.312 536.383C437.703 535.867 437.898 534.727 437.898 532.961V521.57C437.898 520.211 437.836 519.312 437.711 518.875C437.602 518.438 437.32 518.086 436.867 517.82C436.414 517.555 435.672 517.422 434.641 517.422V516.531H445.023V517.422C444.055 517.422 443.344 517.531 442.891 517.75C442.453 517.969 442.156 518.289 442 518.711C441.844 519.117 441.766 520.07 441.766 521.57V526.117ZM467.453 531.391L476.734 520.656C476.703 519.453 476.477 518.617 476.055 518.148C475.633 517.68 474.906 517.438 473.875 517.422V516.531H483.859V517.422C482.812 517.422 482.109 517.531 481.75 517.75C481.391 517.953 481.109 518.211 480.906 518.523C480.703 518.836 480.602 519.852 480.602 521.57V532.961C480.602 534.617 480.688 535.609 480.859 535.938C481.031 536.25 481.297 536.531 481.656 536.781C482.031 537.016 482.766 537.133 483.859 537.133V538H473.477V537.133C474.773 537.133 475.641 536.898 476.078 536.43C476.516 535.945 476.734 534.789 476.734 532.961V522.859L467.453 533.617C467.484 534.945 467.672 535.859 468.016 536.359C468.359 536.859 469.102 537.117 470.242 537.133V538H460.328V537.133C461.719 537.133 462.609 536.883 463 536.383C463.391 535.867 463.586 534.727 463.586 532.961V521.57C463.586 519.898 463.5 518.914 463.328 518.617C463.156 518.305 462.891 518.031 462.531 517.797C462.172 517.547 461.438 517.422 460.328 517.422V516.531H470.711V517.422C469.664 517.422 468.961 517.531 468.602 517.75C468.242 517.953 467.961 518.211 467.758 518.523C467.555 518.836 467.453 519.852 467.453 521.57V531.391ZM490.047 524.617C490.031 527.805 490.805 530.305 492.367 532.117C493.93 533.93 495.766 534.836 497.875 534.836C499.281 534.836 500.5 534.453 501.531 533.688C502.578 532.906 503.453 531.578 504.156 529.703L504.883 530.172C504.555 532.312 503.602 534.266 502.023 536.031C500.445 537.781 498.469 538.656 496.094 538.656C493.516 538.656 491.305 537.656 489.461 535.656C487.633 533.641 486.719 530.938 486.719 527.547C486.719 523.875 487.656 521.016 489.531 518.969C491.422 516.906 493.789 515.875 496.633 515.875C499.039 515.875 501.016 516.672 502.562 518.266C504.109 519.844 504.883 521.961 504.883 524.617H490.047ZM490.047 523.258H499.984C499.906 521.883 499.742 520.914 499.492 520.352C499.102 519.477 498.516 518.789 497.734 518.289C496.969 517.789 496.164 517.539 495.32 517.539C494.023 517.539 492.859 518.047 491.828 519.062C490.812 520.062 490.219 521.461 490.047 523.258ZM526.469 531.391L535.75 520.656C535.719 519.453 535.492 518.617 535.07 518.148C534.648 517.68 533.922 517.438 532.891 517.422V516.531H542.875V517.422C541.828 517.422 541.125 517.531 540.766 517.75C540.406 517.953 540.125 518.211 539.922 518.523C539.719 518.836 539.617 519.852 539.617 521.57V532.961C539.617 534.617 539.703 535.609 539.875 535.938C540.047 536.25 540.312 536.531 540.672 536.781C541.047 537.016 541.781 537.133 542.875 537.133V538H532.492V537.133C533.789 537.133 534.656 536.898 535.094 536.43C535.531 535.945 535.75 534.789 535.75 532.961V522.859L526.469 533.617C526.5 534.945 526.688 535.859 527.031 536.359C527.375 536.859 528.117 537.117 529.258 537.133V538H519.344V537.133C520.734 537.133 521.625 536.883 522.016 536.383C522.406 535.867 522.602 534.727 522.602 532.961V521.57C522.602 519.898 522.516 518.914 522.344 518.617C522.172 518.305 521.906 518.031 521.547 517.797C521.188 517.547 520.453 517.422 519.344 517.422V516.531H529.727V517.422C528.68 517.422 527.977 517.531 527.617 517.75C527.258 517.953 526.977 518.211 526.773 518.523C526.57 518.836 526.469 519.852 526.469 521.57V531.391ZM552.156 526.117H561.438V521.57C561.438 520.211 561.383 519.328 561.273 518.922C561.164 518.5 560.891 518.148 560.453 517.867C560.031 517.57 559.273 517.422 558.18 517.422V516.531H568.562V517.422C567.594 517.422 566.883 517.531 566.43 517.75C565.992 517.969 565.695 518.289 565.539 518.711C565.383 519.117 565.305 520.07 565.305 521.57V532.961C565.305 534.32 565.359 535.219 565.469 535.656C565.594 536.094 565.883 536.453 566.336 536.734C566.789 537 567.531 537.133 568.562 537.133V538H558.18V537.133C559.477 537.133 560.344 536.898 560.781 536.43C561.219 535.945 561.438 534.789 561.438 532.961V527.641H552.156V532.961C552.156 534.32 552.211 535.219 552.32 535.656C552.445 536.094 552.734 536.453 553.188 536.734C553.641 537 554.383 537.133 555.414 537.133V538H545.031V537.133C546.422 537.133 547.312 536.883 547.703 536.383C548.094 535.867 548.289 534.727 548.289 532.961V521.57C548.289 520.211 548.227 519.312 548.102 518.875C547.992 518.438 547.711 518.086 547.258 517.82C546.805 517.555 546.062 517.422 545.031 517.422V516.531H555.414V517.422C554.445 517.422 553.734 517.531 553.281 517.75C552.844 517.969 552.547 518.289 552.391 518.711C552.234 519.117 552.156 520.07 552.156 521.57V526.117ZM579.648 507.32L585.977 504.672H587.008V517.867C588.43 516.555 589.875 515.898 591.344 515.898C593.359 515.898 595.086 517.008 596.523 519.227C597.977 521.445 598.703 524.133 598.703 527.289C598.703 530.383 597.969 533.055 596.5 535.305C595.031 537.539 593.25 538.656 591.156 538.656C589.609 538.656 588.227 537.969 587.008 536.594V543.227C587.008 544.789 587.094 545.781 587.266 546.203C587.453 546.641 587.781 546.945 588.25 547.117C588.719 547.305 589.703 547.398 591.203 547.398V548.266H579.648V547.398C581.211 547.398 582.219 547.172 582.672 546.719C583.141 546.281 583.375 545.117 583.375 543.227V536.594C582.203 537.969 580.828 538.656 579.25 538.656C577.078 538.656 575.273 537.531 573.836 535.281C572.398 533.031 571.68 530.289 571.68 527.055C571.68 524.133 572.367 521.547 573.742 519.297C575.117 517.031 576.914 515.898 579.133 515.898C580.773 515.898 582.188 516.648 583.375 518.148V512.336C583.375 510.336 583.25 509.062 583 508.516C582.75 507.969 582.312 507.695 581.688 507.695C581.172 507.695 580.609 507.828 580 508.094L579.648 507.32ZM583.375 520.234C582.5 518.391 581.375 517.469 580 517.469C578.672 517.469 577.633 518.344 576.883 520.094C576.148 521.828 575.781 524.414 575.781 527.852C575.781 530.883 576.148 533.18 576.883 534.742C577.633 536.289 578.672 537.062 580 537.062C581.219 537.062 582.344 536.352 583.375 534.93V520.234ZM587.008 534.531C587.32 535.344 587.812 535.969 588.484 536.406C589.156 536.844 589.797 537.062 590.406 537.062C591.609 537.062 592.594 536.305 593.359 534.789C594.141 533.273 594.531 530.906 594.531 527.688C594.531 520.875 593.18 517.469 590.477 517.469C589.336 517.469 588.18 518.102 587.008 519.367V534.531ZM612.766 515.898C616.016 515.898 618.625 517.133 620.594 519.602C622.266 521.711 623.102 524.133 623.102 526.867C623.102 528.789 622.641 530.734 621.719 532.703C620.797 534.672 619.523 536.156 617.898 537.156C616.289 538.156 614.492 538.656 612.508 538.656C609.273 538.656 606.703 537.367 604.797 534.789C603.188 532.617 602.383 530.18 602.383 527.477C602.383 525.508 602.867 523.555 603.836 521.617C604.82 519.664 606.109 518.227 607.703 517.305C609.297 516.367 610.984 515.898 612.766 515.898ZM612.039 517.422C611.211 517.422 610.375 517.672 609.531 518.172C608.703 518.656 608.031 519.516 607.516 520.75C607 521.984 606.742 523.57 606.742 525.508C606.742 528.633 607.359 531.328 608.594 533.594C609.844 535.859 611.484 536.992 613.516 536.992C615.031 536.992 616.281 536.367 617.266 535.117C618.25 533.867 618.742 531.719 618.742 528.672C618.742 524.859 617.922 521.859 616.281 519.672C615.172 518.172 613.758 517.422 612.039 517.422ZM624.719 518.664L631.328 515.992H632.219V521.008C633.328 519.117 634.438 517.797 635.547 517.047C636.672 516.281 637.852 515.898 639.086 515.898C641.242 515.898 643.039 516.742 644.477 518.43C646.242 520.492 647.125 523.18 647.125 526.492C647.125 530.195 646.062 533.258 643.938 535.68C642.188 537.664 639.984 538.656 637.328 538.656C636.172 538.656 635.172 538.492 634.328 538.164C633.703 537.93 633 537.461 632.219 536.758V543.297C632.219 544.766 632.305 545.695 632.477 546.086C632.664 546.492 632.977 546.812 633.414 547.047C633.867 547.281 634.68 547.398 635.852 547.398V548.266H624.602V547.398H625.188C626.047 547.414 626.781 547.25 627.391 546.906C627.688 546.734 627.914 546.453 628.07 546.062C628.242 545.688 628.328 544.719 628.328 543.156V522.859C628.328 521.469 628.266 520.586 628.141 520.211C628.016 519.836 627.812 519.555 627.531 519.367C627.266 519.18 626.898 519.086 626.43 519.086C626.055 519.086 625.578 519.195 625 519.414L624.719 518.664ZM632.219 522.391V530.406C632.219 532.141 632.289 533.281 632.43 533.828C632.648 534.734 633.18 535.531 634.023 536.219C634.883 536.906 635.961 537.25 637.258 537.25C638.82 537.25 640.086 536.641 641.055 535.422C642.32 533.828 642.953 531.586 642.953 528.695C642.953 525.414 642.234 522.891 640.797 521.125C639.797 519.906 638.609 519.297 637.234 519.297C636.484 519.297 635.742 519.484 635.008 519.859C634.445 520.141 633.516 520.984 632.219 522.391ZM663.391 532.398L670.094 516.531H677.336V517.422C676.273 517.422 675.562 517.531 675.203 517.75C674.859 517.953 674.586 518.211 674.383 518.523C674.18 518.836 674.078 519.852 674.078 521.57V532.961C674.078 534.445 674.148 535.406 674.289 535.844C674.445 536.266 674.75 536.586 675.203 536.805C675.672 537.023 676.383 537.133 677.336 537.133V538H666.953V537.133C668.234 537.133 669.094 536.898 669.531 536.43C669.969 535.945 670.188 534.789 670.188 532.961V520.047L662.594 538H661.773L654.039 520.047V532.961C654.039 534.445 654.117 535.406 654.273 535.844C654.43 536.266 654.734 536.586 655.188 536.805C655.641 537.023 656.344 537.133 657.297 537.133V538H649.094V537.133C650.484 537.133 651.375 536.883 651.766 536.383C652.156 535.867 652.352 534.727 652.352 532.961V521.57C652.352 519.898 652.266 518.914 652.094 518.617C651.922 518.305 651.656 518.031 651.297 517.797C650.938 517.547 650.203 517.422 649.094 517.422V516.531H656.641L663.391 532.398ZM691.727 534.906C689.523 536.609 688.141 537.594 687.578 537.859C686.734 538.25 685.836 538.445 684.883 538.445C683.398 538.445 682.172 537.938 681.203 536.922C680.25 535.906 679.773 534.57 679.773 532.914C679.773 531.867 680.008 530.961 680.477 530.195C681.117 529.133 682.227 528.133 683.805 527.195C685.398 526.258 688.039 525.117 691.727 523.773V522.93C691.727 520.789 691.383 519.32 690.695 518.523C690.023 517.727 689.039 517.328 687.742 517.328C686.758 517.328 685.977 517.594 685.398 518.125C684.805 518.656 684.508 519.266 684.508 519.953L684.555 521.312C684.555 522.031 684.367 522.586 683.992 522.977C683.633 523.367 683.156 523.562 682.562 523.562C681.984 523.562 681.508 523.359 681.133 522.953C680.773 522.547 680.594 521.992 680.594 521.289C680.594 519.945 681.281 518.711 682.656 517.586C684.031 516.461 685.961 515.898 688.445 515.898C690.352 515.898 691.914 516.219 693.133 516.859C694.055 517.344 694.734 518.102 695.172 519.133C695.453 519.805 695.594 521.18 695.594 523.258V530.547C695.594 532.594 695.633 533.852 695.711 534.32C695.789 534.773 695.914 535.078 696.086 535.234C696.273 535.391 696.484 535.469 696.719 535.469C696.969 535.469 697.188 535.414 697.375 535.305C697.703 535.102 698.336 534.531 699.273 533.594V534.906C697.523 537.25 695.852 538.422 694.258 538.422C693.492 538.422 692.883 538.156 692.43 537.625C691.977 537.094 691.742 536.188 691.727 534.906ZM691.727 533.383V525.203C689.367 526.141 687.844 526.805 687.156 527.195C685.922 527.883 685.039 528.602 684.508 529.352C683.977 530.102 683.711 530.922 683.711 531.812C683.711 532.938 684.047 533.875 684.719 534.625C685.391 535.359 686.164 535.727 687.039 535.727C688.227 535.727 689.789 534.945 691.727 533.383ZM724 537.133V543.953H723.133C723.086 542.125 722.484 540.672 721.328 539.594C720.188 538.531 718.109 538 715.094 538H700.469V537.133C701.859 537.133 702.75 536.883 703.141 536.383C703.531 535.867 703.727 534.727 703.727 532.961V521.57C703.727 519.898 703.641 518.914 703.469 518.617C703.297 518.305 703.031 518.031 702.672 517.797C702.312 517.547 701.578 517.422 700.469 517.422V516.531H710.852V517.422C709.805 517.422 709.102 517.531 708.742 517.75C708.383 517.953 708.102 518.211 707.898 518.523C707.695 518.836 707.594 519.852 707.594 521.57V533.688C707.594 535.047 707.711 535.852 707.945 536.102C708.195 536.352 708.977 536.477 710.289 536.477H714.086C715.539 536.477 716.367 536.344 716.57 536.078C716.773 535.812 716.875 534.953 716.875 533.5V521.57C716.875 520.086 716.797 519.133 716.641 518.711C716.484 518.273 716.18 517.953 715.727 517.75C715.273 517.531 714.57 517.422 713.617 517.422V516.531H724V517.422C722.953 517.422 722.25 517.531 721.891 517.75C721.531 517.953 721.25 518.211 721.047 518.523C720.844 518.836 720.742 519.852 720.742 521.57V532.609C720.742 534.625 720.922 535.867 721.281 536.336C721.641 536.805 722.547 537.07 724 537.133ZM733.281 531.391L742.562 520.656C742.531 519.453 742.305 518.617 741.883 518.148C741.461 517.68 740.734 517.438 739.703 517.422V516.531H749.688V517.422C748.641 517.422 747.938 517.531 747.578 517.75C747.219 517.953 746.938 518.211 746.734 518.523C746.531 518.836 746.43 519.852 746.43 521.57V532.961C746.43 534.617 746.516 535.609 746.688 535.938C746.859 536.25 747.125 536.531 747.484 536.781C747.859 537.016 748.594 537.133 749.688 537.133V538H739.305V537.133C740.602 537.133 741.469 536.898 741.906 536.43C742.344 535.945 742.562 534.789 742.562 532.961V522.859L733.281 533.617C733.312 534.945 733.5 535.859 733.844 536.359C734.188 536.859 734.93 537.117 736.07 537.133V538H726.156V537.133C727.547 537.133 728.438 536.883 728.828 536.383C729.219 535.867 729.414 534.727 729.414 532.961V521.57C729.414 519.898 729.328 518.914 729.156 518.617C728.984 518.305 728.719 518.031 728.359 517.797C728 517.547 727.266 517.422 726.156 517.422V516.531H736.539V517.422C735.492 517.422 734.789 517.531 734.43 517.75C734.07 517.953 733.789 518.211 733.586 518.523C733.383 518.836 733.281 519.852 733.281 521.57V531.391ZM758.969 531.391L768.25 520.656C768.219 519.453 767.992 518.617 767.57 518.148C767.148 517.68 766.422 517.438 765.391 517.422V516.531H775.375V517.422C774.328 517.422 773.625 517.531 773.266 517.75C772.906 517.953 772.625 518.211 772.422 518.523C772.219 518.836 772.117 519.852 772.117 521.57V532.961C772.117 534.617 772.203 535.609 772.375 535.938C772.547 536.25 772.812 536.531 773.172 536.781C773.547 537.016 774.281 537.133 775.375 537.133V538H764.992V537.133C766.289 537.133 767.156 536.898 767.594 536.43C768.031 535.945 768.25 534.789 768.25 532.961V522.859L758.969 533.617C759 534.945 759.188 535.859 759.531 536.359C759.875 536.859 760.617 537.117 761.758 537.133V538H751.844V537.133C753.234 537.133 754.125 536.883 754.516 536.383C754.906 535.867 755.102 534.727 755.102 532.961V521.57C755.102 519.898 755.016 518.914 754.844 518.617C754.672 518.305 754.406 518.031 754.047 517.797C753.688 517.547 752.953 517.422 751.844 517.422V516.531H762.227V517.422C761.18 517.422 760.477 517.531 760.117 517.75C759.758 517.953 759.477 518.211 759.273 518.523C759.07 518.836 758.969 519.852 758.969 521.57V531.391ZM800.453 515.898C803.703 515.898 806.312 517.133 808.281 519.602C809.953 521.711 810.789 524.133 810.789 526.867C810.789 528.789 810.328 530.734 809.406 532.703C808.484 534.672 807.211 536.156 805.586 537.156C803.977 538.156 802.18 538.656 800.195 538.656C796.961 538.656 794.391 537.367 792.484 534.789C790.875 532.617 790.07 530.18 790.07 527.477C790.07 525.508 790.555 523.555 791.523 521.617C792.508 519.664 793.797 518.227 795.391 517.305C796.984 516.367 798.672 515.898 800.453 515.898ZM799.727 517.422C798.898 517.422 798.062 517.672 797.219 518.172C796.391 518.656 795.719 519.516 795.203 520.75C794.688 521.984 794.43 523.57 794.43 525.508C794.43 528.633 795.047 531.328 796.281 533.594C797.531 535.859 799.172 536.992 801.203 536.992C802.719 536.992 803.969 536.367 804.953 535.117C805.938 533.867 806.43 531.719 806.43 528.672C806.43 524.859 805.609 521.859 803.969 519.672C802.859 518.172 801.445 517.422 799.727 517.422ZM828.883 516.531H847.82V517.422C846.758 517.422 846.047 517.531 845.688 517.75C845.344 517.953 845.07 518.211 844.867 518.523C844.664 518.836 844.562 519.852 844.562 521.57V532.188C844.562 534.422 844.75 535.797 845.125 536.312C845.516 536.812 846.414 537.086 847.82 537.133V543.953H846.93C846.867 542.672 846.547 541.555 845.969 540.602C845.406 539.648 844.617 538.977 843.602 538.586C842.586 538.195 841.086 538 839.102 538H833.57C831.852 538 830.508 538.148 829.539 538.445C828.57 538.758 827.758 539.398 827.102 540.367C826.461 541.336 826.07 542.531 825.93 543.953H825.062V537.133C826.344 537.086 827.508 536.578 828.555 535.609C829.602 534.641 830.523 532.742 831.32 529.914C832.117 527.086 832.516 524.305 832.516 521.57C832.516 518.883 831.305 517.5 828.883 517.422V516.531ZM834.062 518.055V519.344C834.062 527.016 832.672 532.727 829.891 536.477H837.859C839.297 536.477 840.125 536.359 840.344 536.125C840.562 535.875 840.672 534.977 840.672 533.43V518.055H834.062ZM863.992 526.656C867.914 527.469 869.875 529.305 869.875 532.164C869.875 534.117 869.055 535.578 867.414 536.547C865.789 537.516 863.516 538 860.594 538H850V537.133C851.391 537.133 852.266 536.875 852.625 536.359C853 535.828 853.188 534.695 853.188 532.961V521.57C853.188 519.883 853.102 518.891 852.93 518.594C852.773 518.297 852.516 518.031 852.156 517.797C851.812 517.547 851.094 517.422 850 517.422V516.531H859.891C861.797 516.531 863.336 516.68 864.508 516.977C865.695 517.273 866.664 517.859 867.414 518.734C868.18 519.609 868.562 520.672 868.562 521.922C868.562 524.359 867.039 525.938 863.992 526.656ZM857.078 526.117C857.766 526.133 858.18 526.141 858.32 526.141C860.461 526.141 862.008 525.734 862.961 524.922C863.914 524.094 864.391 523.094 864.391 521.922C864.391 520.562 863.906 519.578 862.938 518.969C861.969 518.359 860.422 518.055 858.297 518.055H857.078V526.117ZM857.078 536.102C857.859 536.352 858.789 536.477 859.867 536.477C861.727 536.477 863.109 536.07 864.016 535.258C864.922 534.445 865.375 533.398 865.375 532.117C865.375 530.68 864.789 529.578 863.617 528.812C862.445 528.047 860.82 527.664 858.742 527.664C858.227 527.664 857.672 527.68 857.078 527.711V536.102ZM879.766 531.391L889.047 520.656C889.016 519.453 888.789 518.617 888.367 518.148C887.945 517.68 887.219 517.438 886.188 517.422V516.531H896.172V517.422C895.125 517.422 894.422 517.531 894.062 517.75C893.703 517.953 893.422 518.211 893.219 518.523C893.016 518.836 892.914 519.852 892.914 521.57V532.961C892.914 534.617 893 535.609 893.172 535.938C893.344 536.25 893.609 536.531 893.969 536.781C894.344 537.016 895.078 537.133 896.172 537.133V538H885.789V537.133C887.086 537.133 887.953 536.898 888.391 536.43C888.828 535.945 889.047 534.789 889.047 532.961V522.859L879.766 533.617C879.797 534.945 879.984 535.859 880.328 536.359C880.672 536.859 881.414 537.117 882.555 537.133V538H872.641V537.133C874.031 537.133 874.922 536.883 875.312 536.383C875.703 535.867 875.898 534.727 875.898 532.961V521.57C875.898 519.898 875.812 518.914 875.641 518.617C875.469 518.305 875.203 518.031 874.844 517.797C874.484 517.547 873.75 517.422 872.641 517.422V516.531H883.023V517.422C881.977 517.422 881.273 517.531 880.914 517.75C880.555 517.953 880.273 518.211 880.07 518.523C879.867 518.836 879.766 519.852 879.766 521.57V531.391ZM908.547 538V537.133C910 536.992 910.922 536.609 911.312 535.984C911.703 535.344 911.898 534.047 911.898 532.094V527.219C910.867 527.219 910.18 527.336 909.836 527.57C909.508 527.805 908.945 528.688 908.148 530.219L904.117 538H897.789V537.133C898.883 537.055 899.711 536.75 900.273 536.219C900.836 535.672 901.594 534.438 902.547 532.516C904 529.594 905.062 527.828 905.734 527.219C906.406 526.594 907.133 526.25 907.914 526.188C906.961 525.781 906.062 524.5 905.219 522.344C904.812 521.328 904.492 520.664 904.258 520.352C904.023 520.023 903.703 519.859 903.297 519.859C902.984 519.859 902.586 519.953 902.102 520.141C901.398 520.422 900.852 520.562 900.461 520.562C899.836 520.562 899.344 520.352 898.984 519.93C898.625 519.508 898.445 519 898.445 518.406C898.445 517.719 898.719 517.195 899.266 516.836C899.812 516.461 900.453 516.273 901.188 516.273C902.469 516.273 903.492 516.656 904.258 517.422C905.039 518.172 905.781 519.523 906.484 521.477C907.156 523.336 907.914 524.547 908.758 525.109C909.602 525.672 910.648 525.953 911.898 525.953V522.438C911.898 520.422 911.688 519.117 911.266 518.523C910.859 517.93 909.953 517.562 908.547 517.422V516.531H919.141V517.422C917.719 517.578 916.805 517.953 916.398 518.547C915.992 519.141 915.789 520.438 915.789 522.438V525.953C917.023 525.953 918.062 525.672 918.906 525.109C919.75 524.547 920.508 523.336 921.18 521.477C922.023 519.07 922.898 517.602 923.805 517.07C924.727 516.539 925.602 516.273 926.43 516.273C927.352 516.273 928.047 516.484 928.516 516.906C929 517.328 929.242 517.828 929.242 518.406C929.242 519 929.062 519.508 928.703 519.93C928.344 520.352 927.852 520.562 927.227 520.562C926.836 520.562 926.289 520.422 925.586 520.141C925.102 519.953 924.727 519.859 924.461 519.859C924.008 519.859 923.664 520.023 923.43 520.352C923.195 520.664 922.875 521.328 922.469 522.344C921.625 524.5 920.727 525.781 919.773 526.188C920.586 526.25 921.328 526.609 922 527.266C922.672 527.922 923.703 529.648 925.094 532.445C926.078 534.414 926.852 535.672 927.414 536.219C927.977 536.75 928.805 537.055 929.898 537.133V538H923.57L919.539 530.219C918.742 528.688 918.172 527.805 917.828 527.57C917.5 527.336 916.82 527.219 915.789 527.219V532.094C915.789 534.328 916.016 535.688 916.469 536.172C916.938 536.641 917.828 536.961 919.141 537.133V538H908.547ZM934.891 524.617C934.875 527.805 935.648 530.305 937.211 532.117C938.773 533.93 940.609 534.836 942.719 534.836C944.125 534.836 945.344 534.453 946.375 533.688C947.422 532.906 948.297 531.578 949 529.703L949.727 530.172C949.398 532.312 948.445 534.266 946.867 536.031C945.289 537.781 943.312 538.656 940.938 538.656C938.359 538.656 936.148 537.656 934.305 535.656C932.477 533.641 931.562 530.938 931.562 527.547C931.562 523.875 932.5 521.016 934.375 518.969C936.266 516.906 938.633 515.875 941.477 515.875C943.883 515.875 945.859 516.672 947.406 518.266C948.953 519.844 949.727 521.961 949.727 524.617H934.891ZM934.891 523.258H944.828C944.75 521.883 944.586 520.914 944.336 520.352C943.945 519.477 943.359 518.789 942.578 518.289C941.812 517.789 941.008 517.539 940.164 517.539C938.867 517.539 937.703 518.047 936.672 519.062C935.656 520.062 935.062 521.461 934.891 523.258ZM959.312 526.117H968.594V521.57C968.594 520.211 968.539 519.328 968.43 518.922C968.32 518.5 968.047 518.148 967.609 517.867C967.188 517.57 966.43 517.422 965.336 517.422V516.531H975.719V517.422C974.75 517.422 974.039 517.531 973.586 517.75C973.148 517.969 972.852 518.289 972.695 518.711C972.539 519.117 972.461 520.07 972.461 521.57V532.961C972.461 534.32 972.516 535.219 972.625 535.656C972.75 536.094 973.039 536.453 973.492 536.734C973.945 537 974.688 537.133 975.719 537.133V538H965.336V537.133C966.633 537.133 967.5 536.898 967.938 536.43C968.375 535.945 968.594 534.789 968.594 532.961V527.641H959.312V532.961C959.312 534.32 959.367 535.219 959.477 535.656C959.602 536.094 959.891 536.453 960.344 536.734C960.797 537 961.539 537.133 962.57 537.133V538H952.188V537.133C953.578 537.133 954.469 536.883 954.859 536.383C955.25 535.867 955.445 534.727 955.445 532.961V521.57C955.445 520.211 955.383 519.312 955.258 518.875C955.148 518.438 954.867 518.086 954.414 517.82C953.961 517.555 953.219 517.422 952.188 517.422V516.531H962.57V517.422C961.602 517.422 960.891 517.531 960.438 517.75C960 517.969 959.703 518.289 959.547 518.711C959.391 519.117 959.312 520.07 959.312 521.57V526.117ZM985 531.391L994.281 520.656C994.25 519.453 994.023 518.617 993.602 518.148C993.18 517.68 992.453 517.438 991.422 517.422V516.531H1001.41V517.422C1000.36 517.422 999.656 517.531 999.297 517.75C998.938 517.953 998.656 518.211 998.453 518.523C998.25 518.836 998.148 519.852 998.148 521.57V532.961C998.148 534.617 998.234 535.609 998.406 535.938C998.578 536.25 998.844 536.531 999.203 536.781C999.578 537.016 1000.31 537.133 1001.41 537.133V538H991.023V537.133C992.32 537.133 993.188 536.898 993.625 536.43C994.062 535.945 994.281 534.789 994.281 532.961V522.859L985 533.617C985.031 534.945 985.219 535.859 985.562 536.359C985.906 536.859 986.648 537.117 987.789 537.133V538H977.875V537.133C979.266 537.133 980.156 536.883 980.547 536.383C980.938 535.867 981.133 534.727 981.133 532.961V521.57C981.133 519.898 981.047 518.914 980.875 518.617C980.703 518.305 980.438 518.031 980.078 517.797C979.719 517.547 978.984 517.422 977.875 517.422V516.531H988.258V517.422C987.211 517.422 986.508 517.531 986.148 517.75C985.789 517.953 985.508 518.211 985.305 518.523C985.102 518.836 985 519.852 985 521.57V531.391ZM1010.69 531.391L1019.97 520.656C1019.94 519.453 1019.71 518.617 1019.29 518.148C1018.87 517.68 1018.14 517.438 1017.11 517.422V516.531H1027.09V517.422C1026.05 517.422 1025.34 517.531 1024.98 517.75C1024.62 517.953 1024.34 518.211 1024.14 518.523C1023.94 518.836 1023.84 519.852 1023.84 521.57V532.961C1023.84 534.617 1023.92 535.609 1024.09 535.938C1024.27 536.25 1024.53 536.531 1024.89 536.781C1025.27 537.016 1026 537.133 1027.09 537.133V538H1016.71V537.133C1018.01 537.133 1018.88 536.898 1019.31 536.43C1019.75 535.945 1019.97 534.789 1019.97 532.961V522.859L1010.69 533.617C1010.72 534.945 1010.91 535.859 1011.25 536.359C1011.59 536.859 1012.34 537.117 1013.48 537.133V538H1003.56V537.133C1004.95 537.133 1005.84 536.883 1006.23 536.383C1006.62 535.867 1006.82 534.727 1006.82 532.961V521.57C1006.82 519.898 1006.73 518.914 1006.56 518.617C1006.39 518.305 1006.12 518.031 1005.77 517.797C1005.41 517.547 1004.67 517.422 1003.56 517.422V516.531H1013.95V517.422C1012.9 517.422 1012.2 517.531 1011.84 517.75C1011.48 517.953 1011.2 518.211 1010.99 518.523C1010.79 518.836 1010.69 519.852 1010.69 521.57V531.391Z" fill="white"/>
</svg>
